  0
SECTION
  2
HEADER
  9
$ACADVER
  1
AC1009
  9
$FILLMODE
 70
 0
  9
$SPLFRAME
 70
 1
  9
$EXTMIN
 10
0
 20
0
 30
0.0
  9
$EXTMAX
 10
1058.33
 20
1058.33
 30
0.0
  0
ENDSEC
  0
SECTION
  2
TABLES
  0
TABLE
  2
LAYER
 70
1
  0
LAYER
  2
0
 70
     0
 62
     7
  6
CONTINUOUS
  0
ENDTAB
  0
ENDSEC
  0
SECTION
  2
ENTITIES
  0
POLYLINE
  8
0
 62
     1
 66
     1
 10
0
 20
0
 30
0.0
 40
0.566929
 41
0.566929
  0
VERTEX
  8
0
 10
160.92
 20
249.701
 30
0.0
 40
0.2
 41
0.2
  0
VERTEX
  8
0
 10
160.92
 20
248.098
 30
0.0
 40
0.2
 41
0.2
  0
VERTEX
  8
0
 10
161.025
 20
243.287
 30
0.0
 40
0.2
 41
0.2
  0
VERTEX
  8
0
 10
161.341
 20
236.893
 30
0.0
 40
0.2
 41
0.2
  0
VERTEX
  8
0
 10
161.864
 20
230.524
 30
0.0
 40
0.2
 41
0.2
  0
VERTEX
  8
0
 10
162.596
 20
224.182
 30
0.0
 40
0.2
 41
0.2
  0
VERTEX
  8
0
 10
163.533
 20
217.875
 30
0.0
 40
0.2
 41
0.2
  0
VERTEX
  8
0
 10
164.674
 20
211.606
 30
0.0
 40
0.2
 41
0.2
  0
VERTEX
  8
0
 10
166.02
 20
205.382
 30
0.0
 40
0.2
 41
0.2
  0
VERTEX
  8
0
 10
167.567
 20
199.205
 30
0.0
 40
0.2
 41
0.2
  0
VERTEX
  8
0
 10
169.315
 20
193.084
 30
0.0
 40
0.2
 41
0.2
  0
VERTEX
  8
0
 10
171.263
 20
187.021
 30
0.0
 40
0.2
 41
0.2
  0
VERTEX
  8
0
 10
173.407
 20
181.021
 30
0.0
 40
0.2
 41
0.2
  0
VERTEX
  8
0
 10
175.75
 20
175.089
 30
0.0
 40
0.2
 41
0.2
  0
VERTEX
  8
0
 10
178.286
 20
169.233
 30
0.0
 40
0.2
 41
0.2
  0
VERTEX
  8
0
 10
181.018
 20
163.453
 30
0.0
 40
0.2
 41
0.2
  0
VERTEX
  8
0
 10
183.942
 20
157.758
 30
0.0
 40
0.2
 41
0.2
  0
VERTEX
  8
0
 10
186.256
 20
153.539
 30
0.0
 40
0.2
 41
0.2
  0
VERTEX
  8
0
 10
187.058
 20
152.151
 30
0.0
 40
0.2
 41
0.2
  0
VERTEX
  8
0
 10
187.858
 20
150.763
 30
0.0
 40
0.2
 41
0.2
  0
VERTEX
  8
0
 10
190.355
 20
146.649
 30
0.0
 40
0.2
 41
0.2
  0
VERTEX
  8
0
 10
193.825
 20
141.27
 30
0.0
 40
0.2
 41
0.2
  0
VERTEX
  8
0
 10
197.465
 20
136.015
 30
0.0
 40
0.2
 41
0.2
  0
VERTEX
  8
0
 10
201.269
 20
130.889
 30
0.0
 40
0.2
 41
0.2
  0
VERTEX
  8
0
 10
205.234
 20
125.895
 30
0.0
 40
0.2
 41
0.2
  0
VERTEX
  8
0
 10
209.357
 20
121.037
 30
0.0
 40
0.2
 41
0.2
  0
VERTEX
  8
0
 10
213.634
 20
116.319
 30
0.0
 40
0.2
 41
0.2
  0
VERTEX
  8
0
 10
218.064
 20
111.745
 30
0.0
 40
0.2
 41
0.2
  0
VERTEX
  8
0
 10
222.637
 20
107.317
 30
0.0
 40
0.2
 41
0.2
  0
VERTEX
  8
0
 10
227.356
 20
103.04
 30
0.0
 40
0.2
 41
0.2
  0
VERTEX
  8
0
 10
232.213
 20
98.9171
 30
0.0
 40
0.2
 41
0.2
  0
VERTEX
  8
0
 10
237.207
 20
94.9508
 30
0.0
 40
0.2
 41
0.2
  0
VERTEX
  8
0
 10
242.334
 20
91.1475
 30
0.0
 40
0.2
 41
0.2
  0
VERTEX
  8
0
 10
247.588
 20
87.5083
 30
0.0
 40
0.2
 41
0.2
  0
VERTEX
  8
0
 10
252.968
 20
84.0384
 30
0.0
 40
0.2
 41
0.2
  0
VERTEX
  8
0
 10
257.081
 20
81.5414
 30
0.0
 40
0.2
 41
0.2
  0
VERTEX
  8
0
 10
258.47
 20
80.7392
 30
0.0
 40
0.2
 41
0.2
  0
SEQEND
 8
0
  0
POLYLINE
  8
0
 62
     1
 66
     1
 10
0
 20
0
 30
0.0
 40
0.566929
 41
0.566929
  0
VERTEX
  8
0
 10
135.92
 20
249.701
 30
0.0
 40
0.2
 41
0.2
  0
VERTEX
  8
0
 10
135.92
 20
247.893
 30
0.0
 40
0.2
 41
0.2
  0
VERTEX
  8
0
 10
136.039
 20
242.466
 30
0.0
 40
0.2
 41
0.2
  0
VERTEX
  8
0
 10
136.394
 20
235.252
 30
0.0
 40
0.2
 41
0.2
  0
VERTEX
  8
0
 10
136.985
 20
228.065
 30
0.0
 40
0.2
 41
0.2
  0
VERTEX
  8
0
 10
137.811
 20
220.912
 30
0.0
 40
0.2
 41
0.2
  0
VERTEX
  8
0
 10
138.868
 20
213.796
 30
0.0
 40
0.2
 41
0.2
  0
VERTEX
  8
0
 10
140.156
 20
206.724
 30
0.0
 40
0.2
 41
0.2
  0
VERTEX
  8
0
 10
141.673
 20
199.701
 30
0.0
 40
0.2
 41
0.2
  0
VERTEX
  8
0
 10
143.419
 20
192.735
 30
0.0
 40
0.2
 41
0.2
  0
VERTEX
  8
0
 10
145.391
 20
185.829
 30
0.0
 40
0.2
 41
0.2
  0
VERTEX
  8
0
 10
147.588
 20
178.988
 30
0.0
 40
0.2
 41
0.2
  0
VERTEX
  8
0
 10
150.008
 20
172.219
 30
0.0
 40
0.2
 41
0.2
  0
VERTEX
  8
0
 10
152.649
 20
165.529
 30
0.0
 40
0.2
 41
0.2
  0
VERTEX
  8
0
 10
155.512
 20
158.921
 30
0.0
 40
0.2
 41
0.2
  0
VERTEX
  8
0
 10
158.593
 20
152.401
 30
0.0
 40
0.2
 41
0.2
  0
VERTEX
  8
0
 10
161.892
 20
145.977
 30
0.0
 40
0.2
 41
0.2
  0
VERTEX
  8
0
 10
164.502
 20
141.217
 30
0.0
 40
0.2
 41
0.2
  0
VERTEX
  8
0
 10
165.407
 20
139.65
 30
0.0
 40
0.2
 41
0.2
  0
VERTEX
  8
0
 10
166.311
 20
138.085
 30
0.0
 40
0.2
 41
0.2
  0
VERTEX
  8
0
 10
169.128
 20
133.445
 30
0.0
 40
0.2
 41
0.2
  0
VERTEX
  8
0
 10
173.043
 20
127.375
 30
0.0
 40
0.2
 41
0.2
  0
VERTEX
  8
0
 10
177.148
 20
121.448
 30
0.0
 40
0.2
 41
0.2
  0
VERTEX
  8
0
 10
181.439
 20
115.664
 30
0.0
 40
0.2
 41
0.2
  0
VERTEX
  8
0
 10
185.912
 20
110.031
 30
0.0
 40
0.2
 41
0.2
  0
VERTEX
  8
0
 10
190.565
 20
104.55
 30
0.0
 40
0.2
 41
0.2
  0
VERTEX
  8
0
 10
195.389
 20
99.2283
 30
0.0
 40
0.2
 41
0.2
  0
VERTEX
  8
0
 10
200.385
 20
94.0675
 30
0.0
 40
0.2
 41
0.2
  0
VERTEX
  8
0
 10
205.545
 20
89.0722
 30
0.0
 40
0.2
 41
0.2
  0
VERTEX
  8
0
 10
210.869
 20
84.2465
 30
0.0
 40
0.2
 41
0.2
  0
VERTEX
  8
0
 10
216.349
 20
79.5941
 30
0.0
 40
0.2
 41
0.2
  0
VERTEX
  8
0
 10
221.983
 20
75.1209
 30
0.0
 40
0.2
 41
0.2
  0
VERTEX
  8
0
 10
227.765
 20
70.8297
 30
0.0
 40
0.2
 41
0.2
  0
VERTEX
  8
0
 10
233.693
 20
66.7247
 30
0.0
 40
0.2
 41
0.2
  0
VERTEX
  8
0
 10
239.764
 20
62.8096
 30
0.0
 40
0.2
 41
0.2
  0
VERTEX
  8
0
 10
244.403
 20
59.993
 30
0.0
 40
0.2
 41
0.2
  0
VERTEX
  8
0
 10
245.97
 20
59.0875
 30
0.0
 40
0.2
 41
0.2
  0
SEQEND
 8
0
  0
POLYLINE
  8
0
 62
     1
 66
     1
 10
0
 20
0
 30
0.0
 40
0.566929
 41
0.566929
  0
VERTEX
  8
0
 10
135.92
 20
249.701
 30
0.0
 40
0.2
 41
0.2
  0
VERTEX
  8
0
 10
135.92
 20
248.099
 30
0.0
 40
0.2
 41
0.2
  0
VERTEX
  8
0
 10
135.814
 20
243.294
 30
0.0
 40
0.2
 41
0.2
  0
VERTEX
  8
0
 10
135.498
 20
236.907
 30
0.0
 40
0.2
 41
0.2
  0
VERTEX
  8
0
 10
134.976
 20
230.543
 30
0.0
 40
0.2
 41
0.2
  0
VERTEX
  8
0
 10
134.244
 20
224.208
 30
0.0
 40
0.2
 41
0.2
  0
VERTEX
  8
0
 10
133.309
 20
217.907
 30
0.0
 40
0.2
 41
0.2
  0
VERTEX
  8
0
 10
132.167
 20
211.645
 30
0.0
 40
0.2
 41
0.2
  0
VERTEX
  8
0
 10
130.824
 20
205.427
 30
0.0
 40
0.2
 41
0.2
  0
VERTEX
  8
0
 10
129.278
 20
199.257
 30
0.0
 40
0.2
 41
0.2
  0
VERTEX
  8
0
 10
127.532
 20
193.142
 30
0.0
 40
0.2
 41
0.2
  0
VERTEX
  8
0
 10
125.587
 20
187.084
 30
0.0
 40
0.2
 41
0.2
  0
VERTEX
  8
0
 10
123.445
 20
181.091
 30
0.0
 40
0.2
 41
0.2
  0
VERTEX
  8
0
 10
121.105
 20
175.165
 30
0.0
 40
0.2
 41
0.2
  0
VERTEX
  8
0
 10
118.57
 20
169.314
 30
0.0
 40
0.2
 41
0.2
  0
VERTEX
  8
0
 10
115.842
 20
163.541
 30
0.0
 40
0.2
 41
0.2
  0
VERTEX
  8
0
 10
112.921
 20
157.851
 30
0.0
 40
0.2
 41
0.2
  0
VERTEX
  8
0
 10
110.61
 20
153.638
 30
0.0
 40
0.2
 41
0.2
  0
VERTEX
  8
0
 10
109.809
 20
152.25
 30
0.0
 40
0.2
 41
0.2
  0
VERTEX
  8
0
 10
109.008
 20
150.864
 30
0.0
 40
0.2
 41
0.2
  0
VERTEX
  8
0
 10
106.514
 20
146.754
 30
0.0
 40
0.2
 41
0.2
  0
VERTEX
  8
0
 10
103.047
 20
141.38
 30
0.0
 40
0.2
 41
0.2
  0
VERTEX
  8
0
 10
99.4117
 20
136.131
 30
0.0
 40
0.2
 41
0.2
  0
VERTEX
  8
0
 10
95.6109
 20
131.01
 30
0.0
 40
0.2
 41
0.2
  0
VERTEX
  8
0
 10
91.6492
 20
126.022
 30
0.0
 40
0.2
 41
0.2
  0
VERTEX
  8
0
 10
87.5302
 20
121.17
 30
0.0
 40
0.2
 41
0.2
  0
VERTEX
  8
0
 10
83.2584
 20
116.457
 30
0.0
 40
0.2
 41
0.2
  0
VERTEX
  8
0
 10
78.8349
 20
111.886
 30
0.0
 40
0.2
 41
0.2
  0
VERTEX
  8
0
 10
74.264
 20
107.462
 30
0.0
 40
0.2
 41
0.2
  0
VERTEX
  8
0
 10
69.5508
 20
103.19
 30
0.0
 40
0.2
 41
0.2
  0
VERTEX
  8
0
 10
64.6987
 20
99.0713
 30
0.0
 40
0.2
 41
0.2
  0
VERTEX
  8
0
 10
59.7105
 20
95.1096
 30
0.0
 40
0.2
 41
0.2
  0
VERTEX
  8
0
 10
54.5895
 20
91.3088
 30
0.0
 40
0.2
 41
0.2
  0
VERTEX
  8
0
 10
49.3406
 20
87.6734
 30
0.0
 40
0.2
 41
0.2
  0
VERTEX
  8
0
 10
43.9663
 20
84.2063
 30
0.0
 40
0.2
 41
0.2
  0
VERTEX
  8
0
 10
39.8568
 20
81.7122
 30
0.0
 40
0.2
 41
0.2
  0
VERTEX
  8
0
 10
38.4708
 20
80.9113
 30
0.0
 40
0.2
 41
0.2
  0
SEQEND
 8
0
  0
POLYLINE
  8
0
 62
     1
 66
     1
 10
0
 20
0
 30
0.0
 40
0.566929
 41
0.566929
  0
VERTEX
  8
0
 10
160.92
 20
249.701
 30
0.0
 40
0.2
 41
0.2
  0
VERTEX
  8
0
 10
160.92
 20
247.894
 30
0.0
 40
0.2
 41
0.2
  0
VERTEX
  8
0
 10
160.801
 20
242.473
 30
0.0
 40
0.2
 41
0.2
  0
VERTEX
  8
0
 10
160.445
 20
235.266
 30
0.0
 40
0.2
 41
0.2
  0
VERTEX
  8
0
 10
159.855
 20
228.086
 30
0.0
 40
0.2
 41
0.2
  0
VERTEX
  8
0
 10
159.03
 20
220.938
 30
0.0
 40
0.2
 41
0.2
  0
VERTEX
  8
0
 10
157.974
 20
213.829
 30
0.0
 40
0.2
 41
0.2
  0
VERTEX
  8
0
 10
156.687
 20
206.764
 30
0.0
 40
0.2
 41
0.2
  0
VERTEX
  8
0
 10
155.17
 20
199.748
 30
0.0
 40
0.2
 41
0.2
  0
VERTEX
  8
0
 10
153.427
 20
192.787
 30
0.0
 40
0.2
 41
0.2
  0
VERTEX
  8
0
 10
151.456
 20
185.886
 30
0.0
 40
0.2
 41
0.2
  0
VERTEX
  8
0
 10
149.261
 20
179.053
 30
0.0
 40
0.2
 41
0.2
  0
VERTEX
  8
0
 10
146.844
 20
172.291
 30
0.0
 40
0.2
 41
0.2
  0
VERTEX
  8
0
 10
144.204
 20
165.606
 30
0.0
 40
0.2
 41
0.2
  0
VERTEX
  8
0
 10
141.344
 20
159.004
 30
0.0
 40
0.2
 41
0.2
  0
VERTEX
  8
0
 10
138.266
 20
152.491
 30
0.0
 40
0.2
 41
0.2
  0
VERTEX
  8
0
 10
134.971
 20
146.071
 30
0.0
 40
0.2
 41
0.2
  0
VERTEX
  8
0
 10
132.362
 20
141.316
 30
0.0
 40
0.2
 41
0.2
  0
VERTEX
  8
0
 10
131.459
 20
139.751
 30
0.0
 40
0.2
 41
0.2
  0
VERTEX
  8
0
 10
130.555
 20
138.187
 30
0.0
 40
0.2
 41
0.2
  0
VERTEX
  8
0
 10
127.742
 20
133.551
 30
0.0
 40
0.2
 41
0.2
  0
VERTEX
  8
0
 10
123.829
 20
127.486
 30
0.0
 40
0.2
 41
0.2
  0
VERTEX
  8
0
 10
119.728
 20
121.564
 30
0.0
 40
0.2
 41
0.2
  0
VERTEX
  8
0
 10
115.441
 20
115.786
 30
0.0
 40
0.2
 41
0.2
  0
VERTEX
  8
0
 10
110.971
 20
110.158
 30
0.0
 40
0.2
 41
0.2
  0
VERTEX
  8
0
 10
106.324
 20
104.683
 30
0.0
 40
0.2
 41
0.2
  0
VERTEX
  8
0
 10
101.502
 20
99.3648
 30
0.0
 40
0.2
 41
0.2
  0
VERTEX
  8
0
 10
96.5122
 20
94.2082
 30
0.0
 40
0.2
 41
0.2
  0
VERTEX
  8
0
 10
91.3557
 20
89.2182
 30
0.0
 40
0.2
 41
0.2
  0
VERTEX
  8
0
 10
86.0379
 20
84.3964
 30
0.0
 40
0.2
 41
0.2
  0
VERTEX
  8
0
 10
80.5628
 20
79.75
 30
0.0
 40
0.2
 41
0.2
  0
VERTEX
  8
0
 10
74.9349
 20
75.2796
 30
0.0
 40
0.2
 41
0.2
  0
VERTEX
  8
0
 10
69.1568
 20
70.9923
 30
0.0
 40
0.2
 41
0.2
  0
VERTEX
  8
0
 10
63.234
 20
66.8913
 30
0.0
 40
0.2
 41
0.2
  0
VERTEX
  8
0
 10
57.1694
 20
62.9789
 30
0.0
 40
0.2
 41
0.2
  0
VERTEX
  8
0
 10
52.5336
 20
60.1652
 30
0.0
 40
0.2
 41
0.2
  0
VERTEX
  8
0
 10
50.9693
 20
59.261
 30
0.0
 40
0.2
 41
0.2
  0
SEQEND
 8
0
  0
POLYLINE
  8
0
 62
     1
 66
     1
 10
0
 20
0
 30
0.0
 40
0.566929
 41
0.566929
  0
VERTEX
  8
0
 10
245.921
 20
59.1742
 30
0.0
 40
0.2
 41
0.2
  0
VERTEX
  8
0
 10
244.531
 20
59.9765
 30
0.0
 40
0.2
 41
0.2
  0
VERTEX
  8
0
 10
240.313
 20
62.29
 30
0.0
 40
0.2
 41
0.2
  0
VERTEX
  8
0
 10
234.618
 20
65.2141
 30
0.0
 40
0.2
 41
0.2
  0
VERTEX
  8
0
 10
228.838
 20
67.9457
 30
0.0
 40
0.2
 41
0.2
  0
VERTEX
  8
0
 10
222.982
 20
70.4825
 30
0.0
 40
0.2
 41
0.2
  0
VERTEX
  8
0
 10
217.051
 20
72.8253
 30
0.0
 40
0.2
 41
0.2
  0
VERTEX
  8
0
 10
211.051
 20
74.9709
 30
0.0
 40
0.2
 41
0.2
  0
VERTEX
  8
0
 10
204.987
 20
76.9179
 30
0.0
 40
0.2
 41
0.2
  0
VERTEX
  8
0
 10
198.865
 20
78.6652
 30
0.0
 40
0.2
 41
0.2
  0
VERTEX
  8
0
 10
192.69
 20
80.2128
 30
0.0
 40
0.2
 41
0.2
  0
VERTEX
  8
0
 10
186.465
 20
81.558
 30
0.0
 40
0.2
 41
0.2
  0
VERTEX
  8
0
 10
180.196
 20
82.7003
 30
0.0
 40
0.2
 41
0.2
  0
VERTEX
  8
0
 10
173.889
 20
83.6373
 30
0.0
 40
0.2
 41
0.2
  0
VERTEX
  8
0
 10
167.548
 20
84.3689
 30
0.0
 40
0.2
 41
0.2
  0
VERTEX
  8
0
 10
161.177
 20
84.8928
 30
0.0
 40
0.2
 41
0.2
  0
VERTEX
  8
0
 10
154.783
 20
85.2082
 30
0.0
 40
0.2
 41
0.2
  0
VERTEX
  8
0
 10
149.972
 20
85.313
 30
0.0
 40
0.2
 41
0.2
  0
VERTEX
  8
0
 10
148.369
 20
85.313
 30
0.0
 40
0.2
 41
0.2
  0
VERTEX
  8
0
 10
146.765
 20
85.313
 30
0.0
 40
0.2
 41
0.2
  0
VERTEX
  8
0
 10
141.955
 20
85.2082
 30
0.0
 40
0.2
 41
0.2
  0
VERTEX
  8
0
 10
135.561
 20
84.8928
 30
0.0
 40
0.2
 41
0.2
  0
VERTEX
  8
0
 10
129.191
 20
84.3689
 30
0.0
 40
0.2
 41
0.2
  0
VERTEX
  8
0
 10
122.849
 20
83.6373
 30
0.0
 40
0.2
 41
0.2
  0
VERTEX
  8
0
 10
116.542
 20
82.7003
 30
0.0
 40
0.2
 41
0.2
  0
VERTEX
  8
0
 10
110.273
 20
81.558
 30
0.0
 40
0.2
 41
0.2
  0
VERTEX
  8
0
 10
104.049
 20
80.2128
 30
0.0
 40
0.2
 41
0.2
  0
VERTEX
  8
0
 10
97.874
 20
78.6652
 30
0.0
 40
0.2
 41
0.2
  0
VERTEX
  8
0
 10
91.7512
 20
76.9179
 30
0.0
 40
0.2
 41
0.2
  0
VERTEX
  8
0
 10
85.688
 20
74.9709
 30
0.0
 40
0.2
 41
0.2
  0
VERTEX
  8
0
 10
79.6893
 20
72.8253
 30
0.0
 40
0.2
 41
0.2
  0
VERTEX
  8
0
 10
73.7581
 20
70.4825
 30
0.0
 40
0.2
 41
0.2
  0
VERTEX
  8
0
 10
67.9002
 20
67.9457
 30
0.0
 40
0.2
 41
0.2
  0
VERTEX
  8
0
 10
62.122
 20
65.2141
 30
0.0
 40
0.2
 41
0.2
  0
VERTEX
  8
0
 10
56.4265
 20
62.29
 30
0.0
 40
0.2
 41
0.2
  0
VERTEX
  8
0
 10
52.2083
 20
59.9765
 30
0.0
 40
0.2
 41
0.2
  0
VERTEX
  8
0
 10
50.8208
 20
59.1742
 30
0.0
 40
0.2
 41
0.2
  0
SEQEND
 8
0
  0
POLYLINE
  8
0
 62
     1
 66
     1
 10
0
 20
0
 30
0.0
 40
0.566929
 41
0.566929
  0
VERTEX
  8
0
 10
258.419
 20
80.8246
 30
0.0
 40
0.2
 41
0.2
  0
VERTEX
  8
0
 10
256.853
 20
81.7301
 30
0.0
 40
0.2
 41
0.2
  0
VERTEX
  8
0
 10
252.093
 20
84.34
 30
0.0
 40
0.2
 41
0.2
  0
VERTEX
  8
0
 10
245.668
 20
87.6392
 30
0.0
 40
0.2
 41
0.2
  0
VERTEX
  8
0
 10
239.149
 20
90.7203
 30
0.0
 40
0.2
 41
0.2
  0
VERTEX
  8
0
 10
232.541
 20
93.5824
 30
0.0
 40
0.2
 41
0.2
  0
VERTEX
  8
0
 10
225.851
 20
96.2258
 30
0.0
 40
0.2
 41
0.2
  0
VERTEX
  8
0
 10
219.082
 20
98.6455
 30
0.0
 40
0.2
 41
0.2
  0
VERTEX
  8
0
 10
212.241
 20
100.842
 30
0.0
 40
0.2
 41
0.2
  0
VERTEX
  8
0
 10
205.335
 20
102.814
 30
0.0
 40
0.2
 41
0.2
  0
VERTEX
  8
0
 10
198.369
 20
104.56
 30
0.0
 40
0.2
 41
0.2
  0
VERTEX
  8
0
 10
191.346
 20
106.077
 30
0.0
 40
0.2
 41
0.2
  0
VERTEX
  8
0
 10
184.274
 20
107.366
 30
0.0
 40
0.2
 41
0.2
  0
VERTEX
  8
0
 10
177.158
 20
108.423
 30
0.0
 40
0.2
 41
0.2
  0
VERTEX
  8
0
 10
170.004
 20
109.248
 30
0.0
 40
0.2
 41
0.2
  0
VERTEX
  8
0
 10
162.818
 20
109.839
 30
0.0
 40
0.2
 41
0.2
  0
VERTEX
  8
0
 10
155.604
 20
110.195
 30
0.0
 40
0.2
 41
0.2
  0
VERTEX
  8
0
 10
150.177
 20
110.313
 30
0.0
 40
0.2
 41
0.2
  0
VERTEX
  8
0
 10
148.369
 20
110.313
 30
0.0
 40
0.2
 41
0.2
  0
VERTEX
  8
0
 10
146.56
 20
110.313
 30
0.0
 40
0.2
 41
0.2
  0
VERTEX
  8
0
 10
141.133
 20
110.195
 30
0.0
 40
0.2
 41
0.2
  0
VERTEX
  8
0
 10
133.92
 20
109.839
 30
0.0
 40
0.2
 41
0.2
  0
VERTEX
  8
0
 10
126.733
 20
109.248
 30
0.0
 40
0.2
 41
0.2
  0
VERTEX
  8
0
 10
119.579
 20
108.423
 30
0.0
 40
0.2
 41
0.2
  0
VERTEX
  8
0
 10
112.464
 20
107.366
 30
0.0
 40
0.2
 41
0.2
  0
VERTEX
  8
0
 10
105.392
 20
106.077
 30
0.0
 40
0.2
 41
0.2
  0
VERTEX
  8
0
 10
98.37
 20
104.56
 30
0.0
 40
0.2
 41
0.2
  0
VERTEX
  8
0
 10
91.4026
 20
102.814
 30
0.0
 40
0.2
 41
0.2
  0
VERTEX
  8
0
 10
84.4973
 20
100.842
 30
0.0
 40
0.2
 41
0.2
  0
VERTEX
  8
0
 10
77.6566
 20
98.6455
 30
0.0
 40
0.2
 41
0.2
  0
VERTEX
  8
0
 10
70.8875
 20
96.2258
 30
0.0
 40
0.2
 41
0.2
  0
VERTEX
  8
0
 10
64.1974
 20
93.5824
 30
0.0
 40
0.2
 41
0.2
  0
VERTEX
  8
0
 10
57.5882
 20
90.7203
 30
0.0
 40
0.2
 41
0.2
  0
VERTEX
  8
0
 10
51.0688
 20
87.6392
 30
0.0
 40
0.2
 41
0.2
  0
VERTEX
  8
0
 10
44.6444
 20
84.34
 30
0.0
 40
0.2
 41
0.2
  0
VERTEX
  8
0
 10
39.8847
 20
81.7301
 30
0.0
 40
0.2
 41
0.2
  0
VERTEX
  8
0
 10
38.3191
 20
80.8246
 30
0.0
 40
0.2
 41
0.2
  0
SEQEND
 8
0
  0
POLYLINE
  8
0
 62
     1
 66
     1
 10
0
 20
0
 30
0.0
 40
0.566929
 41
0.566929
  0
VERTEX
  8
0
 10
135.92
 20
249.701
 30
0.0
 40
0.2
 41
0.2
  0
VERTEX
  8
0
 10
135.92
 20
10.0996
 30
0.0
 40
0.2
 41
0.2
  0
SEQEND
 8
0
  0
POLYLINE
  8
0
 62
     1
 66
     1
 10
0
 20
0
 30
0.0
 40
0.566929
 41
0.566929
  0
VERTEX
  8
0
 10
160.92
 20
249.701
 30
0.0
 40
0.2
 41
0.2
  0
VERTEX
  8
0
 10
160.92
 20
10.0996
 30
0.0
 40
0.2
 41
0.2
  0
SEQEND
 8
0
  0
POLYLINE
  8
0
 62
     1
 66
     1
 10
0
 20
0
 30
0.0
 40
0.566929
 41
0.566929
  0
VERTEX
  8
0
 10
245.921
 20
200.626
 30
0.0
 40
0.2
 41
0.2
  0
VERTEX
  8
0
 10
38.4196
 20
80.8246
 30
0.0
 40
0.2
 41
0.2
  0
SEQEND
 8
0
  0
POLYLINE
  8
0
 62
     1
 66
     1
 10
0
 20
0
 30
0.0
 40
0.566929
 41
0.566929
  0
VERTEX
  8
0
 10
258.419
 20
178.975
 30
0.0
 40
0.2
 41
0.2
  0
VERTEX
  8
0
 10
50.9199
 20
59.1742
 30
0.0
 40
0.2
 41
0.2
  0
SEQEND
 8
0
  0
POLYLINE
  8
0
 62
     1
 66
     1
 10
0
 20
0
 30
0.0
 40
0.566929
 41
0.566929
  0
VERTEX
  8
0
 10
258.419
 20
80.8246
 30
0.0
 40
0.2
 41
0.2
  0
VERTEX
  8
0
 10
50.9199
 20
200.626
 30
0.0
 40
0.2
 41
0.2
  0
SEQEND
 8
0
  0
POLYLINE
  8
0
 62
     1
 66
     1
 10
0
 20
0
 30
0.0
 40
0.566929
 41
0.566929
  0
VERTEX
  8
0
 10
245.921
 20
59.1742
 30
0.0
 40
0.2
 41
0.2
  0
VERTEX
  8
0
 10
38.4196
 20
178.975
 30
0.0
 40
0.2
 41
0.2
  0
SEQEND
 8
0
  0
POLYLINE
  8
0
 62
     1
 66
     1
 10
0
 20
0
 30
0.0
 40
0.566929
 41
0.566929
  0
VERTEX
  8
0
 10
148.42
 20
129.901
 30
0.0
 40
0.2
 41
0.2
  0
VERTEX
  8
0
 10
153.42
 20
129.901
 30
0.0
 40
0.2
 41
0.2
  0
SEQEND
 8
0
  0
POLYLINE
  8
0
 62
     1
 66
     1
 10
0
 20
0
 30
0.0
 40
0.566929
 41
0.566929
  0
VERTEX
  8
0
 10
148.42
 20
129.901
 30
0.0
 40
0.2
 41
0.2
  0
VERTEX
  8
0
 10
148.42
 20
134.9
 30
0.0
 40
0.2
 41
0.2
  0
SEQEND
 8
0
  0
POLYLINE
  8
0
 62
     1
 66
     1
 10
0
 20
0
 30
0.0
 40
0.566929
 41
0.566929
  0
VERTEX
  8
0
 10
148.42
 20
129.901
 30
0.0
 40
0.2
 41
0.2
  0
VERTEX
  8
0
 10
143.421
 20
129.901
 30
0.0
 40
0.2
 41
0.2
  0
SEQEND
 8
0
  0
POLYLINE
  8
0
 62
     1
 66
     1
 10
0
 20
0
 30
0.0
 40
0.566929
 41
0.566929
  0
VERTEX
  8
0
 10
148.42
 20
129.901
 30
0.0
 40
0.2
 41
0.2
  0
VERTEX
  8
0
 10
148.42
 20
124.9
 30
0.0
 40
0.2
 41
0.2
  0
SEQEND
 8
0
  0
POLYLINE
  8
0
 62
     5
 66
     1
 10
0
 20
0
 30
0.0
 70
     1
 40
0.566929
 41
0.566929
  0
VERTEX
  8
0
 10
82.7169
 20
10.0004
 30
0.0
 40
0.2
 41
0.2
  0
VERTEX
  8
0
 10
91.9194
 20
10.0004
 30
0.0
 40
0.2
 41
0.2
  0
VERTEX
  8
0
 10
91.9357
 20
10.0004
 30
0.0
 40
0.2
 41
0.2
  0
VERTEX
  8
0
 10
91.9896
 20
10.0294
 30
0.0
 40
0.2
 41
0.2
  0
VERTEX
  8
0
 10
92.02
 20
10.0831
 30
0.0
 40
0.2
 41
0.2
  0
VERTEX
  8
0
 10
92.02
 20
10.0996
 30
0.0
 40
0.2
 41
0.2
  0
VERTEX
  8
0
 10
92.02
 20
16.0004
 30
0.0
 40
0.2
 41
0.2
  0
VERTEX
  8
0
 10
92.02
 20
16.0114
 30
0.0
 40
0.2
 41
0.2
  0
VERTEX
  8
0
 10
92.0048
 20
16.0431
 30
0.0
 40
0.2
 41
0.2
  0
VERTEX
  8
0
 10
91.9812
 20
16.0376
 30
0.0
 40
0.2
 41
0.2
  0
VERTEX
  8
0
 10
91.9773
 20
16.0155
 30
0.0
 40
0.2
 41
0.2
  0
VERTEX
  8
0
 10
92.009
 20
16.0004
 30
0.0
 40
0.2
 41
0.2
  0
VERTEX
  8
0
 10
92.02
 20
16.0004
 30
0.0
 40
0.2
 41
0.2
  0
VERTEX
  8
0
 10
104.821
 20
16.0004
 30
0.0
 40
0.2
 41
0.2
  0
VERTEX
  8
0
 10
104.83
 20
16.0004
 30
0.0
 40
0.2
 41
0.2
  0
VERTEX
  8
0
 10
104.862
 20
16.0155
 30
0.0
 40
0.2
 41
0.2
  0
VERTEX
  8
0
 10
104.858
 20
16.0376
 30
0.0
 40
0.2
 41
0.2
  0
VERTEX
  8
0
 10
104.834
 20
16.0431
 30
0.0
 40
0.2
 41
0.2
  0
VERTEX
  8
0
 10
104.821
 20
16.0114
 30
0.0
 40
0.2
 41
0.2
  0
VERTEX
  8
0
 10
104.821
 20
16.0004
 30
0.0
 40
0.2
 41
0.2
  0
VERTEX
  8
0
 10
104.821
 20
10.0996
 30
0.0
 40
0.2
 41
0.2
  0
VERTEX
  8
0
 10
104.821
 20
10.0831
 30
0.0
 40
0.2
 41
0.2
  0
VERTEX
  8
0
 10
104.849
 20
10.0294
 30
0.0
 40
0.2
 41
0.2
  0
VERTEX
  8
0
 10
104.902
 20
10.0004
 30
0.0
 40
0.2
 41
0.2
  0
VERTEX
  8
0
 10
104.92
 20
10.0004
 30
0.0
 40
0.2
 41
0.2
  0
VERTEX
  8
0
 10
116.92
 20
10.0004
 30
0.0
 40
0.2
 41
0.2
  0
VERTEX
  8
0
 10
116.936
 20
10.0004
 30
0.0
 40
0.2
 41
0.2
  0
VERTEX
  8
0
 10
116.99
 20
10.0294
 30
0.0
 40
0.2
 41
0.2
  0
VERTEX
  8
0
 10
117.02
 20
10.0831
 30
0.0
 40
0.2
 41
0.2
  0
VERTEX
  8
0
 10
117.02
 20
10.0996
 30
0.0
 40
0.2
 41
0.2
  0
VERTEX
  8
0
 10
117.02
 20
16.0004
 30
0.0
 40
0.2
 41
0.2
  0
VERTEX
  8
0
 10
117.02
 20
16.0114
 30
0.0
 40
0.2
 41
0.2
  0
VERTEX
  8
0
 10
117.005
 20
16.0431
 30
0.0
 40
0.2
 41
0.2
  0
VERTEX
  8
0
 10
116.982
 20
16.0376
 30
0.0
 40
0.2
 41
0.2
  0
VERTEX
  8
0
 10
116.978
 20
16.0155
 30
0.0
 40
0.2
 41
0.2
  0
VERTEX
  8
0
 10
117.009
 20
16.0004
 30
0.0
 40
0.2
 41
0.2
  0
VERTEX
  8
0
 10
117.02
 20
16.0004
 30
0.0
 40
0.2
 41
0.2
  0
VERTEX
  8
0
 10
129.819
 20
16.0004
 30
0.0
 40
0.2
 41
0.2
  0
VERTEX
  8
0
 10
129.829
 20
16.0004
 30
0.0
 40
0.2
 41
0.2
  0
VERTEX
  8
0
 10
129.861
 20
16.0155
 30
0.0
 40
0.2
 41
0.2
  0
VERTEX
  8
0
 10
129.857
 20
16.0376
 30
0.0
 40
0.2
 41
0.2
  0
VERTEX
  8
0
 10
129.833
 20
16.0431
 30
0.0
 40
0.2
 41
0.2
  0
VERTEX
  8
0
 10
129.819
 20
16.0114
 30
0.0
 40
0.2
 41
0.2
  0
VERTEX
  8
0
 10
129.819
 20
16.0004
 30
0.0
 40
0.2
 41
0.2
  0
VERTEX
  8
0
 10
129.819
 20
10.0996
 30
0.0
 40
0.2
 41
0.2
  0
VERTEX
  8
0
 10
129.819
 20
10.0831
 30
0.0
 40
0.2
 41
0.2
  0
VERTEX
  8
0
 10
129.848
 20
10.0294
 30
0.0
 40
0.2
 41
0.2
  0
VERTEX
  8
0
 10
129.902
 20
10.0004
 30
0.0
 40
0.2
 41
0.2
  0
VERTEX
  8
0
 10
129.92
 20
10.0004
 30
0.0
 40
0.2
 41
0.2
  0
VERTEX
  8
0
 10
141.92
 20
10.0004
 30
0.0
 40
0.2
 41
0.2
  0
VERTEX
  8
0
 10
141.937
 20
10.0004
 30
0.0
 40
0.2
 41
0.2
  0
VERTEX
  8
0
 10
141.99
 20
10.0294
 30
0.0
 40
0.2
 41
0.2
  0
VERTEX
  8
0
 10
142.019
 20
10.0831
 30
0.0
 40
0.2
 41
0.2
  0
VERTEX
  8
0
 10
142.019
 20
10.0996
 30
0.0
 40
0.2
 41
0.2
  0
VERTEX
  8
0
 10
142.019
 20
16.0004
 30
0.0
 40
0.2
 41
0.2
  0
VERTEX
  8
0
 10
142.019
 20
16.0114
 30
0.0
 40
0.2
 41
0.2
  0
VERTEX
  8
0
 10
142.004
 20
16.0431
 30
0.0
 40
0.2
 41
0.2
  0
VERTEX
  8
0
 10
141.982
 20
16.0376
 30
0.0
 40
0.2
 41
0.2
  0
VERTEX
  8
0
 10
141.976
 20
16.0155
 30
0.0
 40
0.2
 41
0.2
  0
VERTEX
  8
0
 10
142.008
 20
16.0004
 30
0.0
 40
0.2
 41
0.2
  0
VERTEX
  8
0
 10
142.019
 20
16.0004
 30
0.0
 40
0.2
 41
0.2
  0
VERTEX
  8
0
 10
154.82
 20
16.0004
 30
0.0
 40
0.2
 41
0.2
  0
VERTEX
  8
0
 10
154.83
 20
16.0004
 30
0.0
 40
0.2
 41
0.2
  0
VERTEX
  8
0
 10
154.861
 20
16.0155
 30
0.0
 40
0.2
 41
0.2
  0
VERTEX
  8
0
 10
154.857
 20
16.0376
 30
0.0
 40
0.2
 41
0.2
  0
VERTEX
  8
0
 10
154.833
 20
16.0431
 30
0.0
 40
0.2
 41
0.2
  0
VERTEX
  8
0
 10
154.82
 20
16.0114
 30
0.0
 40
0.2
 41
0.2
  0
VERTEX
  8
0
 10
154.82
 20
16.0004
 30
0.0
 40
0.2
 41
0.2
  0
VERTEX
  8
0
 10
154.82
 20
10.0996
 30
0.0
 40
0.2
 41
0.2
  0
VERTEX
  8
0
 10
154.82
 20
10.0831
 30
0.0
 40
0.2
 41
0.2
  0
VERTEX
  8
0
 10
154.849
 20
10.0294
 30
0.0
 40
0.2
 41
0.2
  0
VERTEX
  8
0
 10
154.903
 20
10.0004
 30
0.0
 40
0.2
 41
0.2
  0
VERTEX
  8
0
 10
154.921
 20
10.0004
 30
0.0
 40
0.2
 41
0.2
  0
VERTEX
  8
0
 10
166.92
 20
10.0004
 30
0.0
 40
0.2
 41
0.2
  0
VERTEX
  8
0
 10
166.937
 20
10.0004
 30
0.0
 40
0.2
 41
0.2
  0
VERTEX
  8
0
 10
166.991
 20
10.0294
 30
0.0
 40
0.2
 41
0.2
  0
VERTEX
  8
0
 10
167.019
 20
10.0831
 30
0.0
 40
0.2
 41
0.2
  0
VERTEX
  8
0
 10
167.019
 20
10.0996
 30
0.0
 40
0.2
 41
0.2
  0
VERTEX
  8
0
 10
167.019
 20
16.0004
 30
0.0
 40
0.2
 41
0.2
  0
VERTEX
  8
0
 10
167.019
 20
16.0114
 30
0.0
 40
0.2
 41
0.2
  0
VERTEX
  8
0
 10
167.004
 20
16.0431
 30
0.0
 40
0.2
 41
0.2
  0
VERTEX
  8
0
 10
166.982
 20
16.0376
 30
0.0
 40
0.2
 41
0.2
  0
VERTEX
  8
0
 10
166.977
 20
16.0155
 30
0.0
 40
0.2
 41
0.2
  0
VERTEX
  8
0
 10
167.009
 20
16.0004
 30
0.0
 40
0.2
 41
0.2
  0
VERTEX
  8
0
 10
167.019
 20
16.0004
 30
0.0
 40
0.2
 41
0.2
  0
VERTEX
  8
0
 10
179.82
 20
16.0004
 30
0.0
 40
0.2
 41
0.2
  0
VERTEX
  8
0
 10
179.83
 20
16.0004
 30
0.0
 40
0.2
 41
0.2
  0
VERTEX
  8
0
 10
179.862
 20
16.0155
 30
0.0
 40
0.2
 41
0.2
  0
VERTEX
  8
0
 10
179.857
 20
16.0376
 30
0.0
 40
0.2
 41
0.2
  0
VERTEX
  8
0
 10
179.834
 20
16.0431
 30
0.0
 40
0.2
 41
0.2
  0
VERTEX
  8
0
 10
179.82
 20
16.0114
 30
0.0
 40
0.2
 41
0.2
  0
VERTEX
  8
0
 10
179.82
 20
16.0004
 30
0.0
 40
0.2
 41
0.2
  0
VERTEX
  8
0
 10
179.82
 20
10.0996
 30
0.0
 40
0.2
 41
0.2
  0
VERTEX
  8
0
 10
179.82
 20
10.0831
 30
0.0
 40
0.2
 41
0.2
  0
VERTEX
  8
0
 10
179.849
 20
10.0294
 30
0.0
 40
0.2
 41
0.2
  0
VERTEX
  8
0
 10
179.901
 20
10.0004
 30
0.0
 40
0.2
 41
0.2
  0
VERTEX
  8
0
 10
179.919
 20
10.0004
 30
0.0
 40
0.2
 41
0.2
  0
VERTEX
  8
0
 10
191.919
 20
10.0004
 30
0.0
 40
0.2
 41
0.2
  0
VERTEX
  8
0
 10
191.936
 20
10.0004
 30
0.0
 40
0.2
 41
0.2
  0
VERTEX
  8
0
 10
191.99
 20
10.0294
 30
0.0
 40
0.2
 41
0.2
  0
VERTEX
  8
0
 10
192.02
 20
10.0831
 30
0.0
 40
0.2
 41
0.2
  0
VERTEX
  8
0
 10
192.02
 20
10.0996
 30
0.0
 40
0.2
 41
0.2
  0
VERTEX
  8
0
 10
192.02
 20
16.0004
 30
0.0
 40
0.2
 41
0.2
  0
VERTEX
  8
0
 10
192.02
 20
16.0114
 30
0.0
 40
0.2
 41
0.2
  0
VERTEX
  8
0
 10
192.005
 20
16.0431
 30
0.0
 40
0.2
 41
0.2
  0
VERTEX
  8
0
 10
191.981
 20
16.0376
 30
0.0
 40
0.2
 41
0.2
  0
VERTEX
  8
0
 10
191.977
 20
16.0155
 30
0.0
 40
0.2
 41
0.2
  0
VERTEX
  8
0
 10
192.009
 20
16.0004
 30
0.0
 40
0.2
 41
0.2
  0
VERTEX
  8
0
 10
192.02
 20
16.0004
 30
0.0
 40
0.2
 41
0.2
  0
VERTEX
  8
0
 10
204.821
 20
16.0004
 30
0.0
 40
0.2
 41
0.2
  0
VERTEX
  8
0
 10
204.83
 20
16.0004
 30
0.0
 40
0.2
 41
0.2
  0
VERTEX
  8
0
 10
204.862
 20
16.0155
 30
0.0
 40
0.2
 41
0.2
  0
VERTEX
  8
0
 10
204.858
 20
16.0376
 30
0.0
 40
0.2
 41
0.2
  0
VERTEX
  8
0
 10
204.834
 20
16.0431
 30
0.0
 40
0.2
 41
0.2
  0
VERTEX
  8
0
 10
204.821
 20
16.0114
 30
0.0
 40
0.2
 41
0.2
  0
VERTEX
  8
0
 10
204.821
 20
16.0004
 30
0.0
 40
0.2
 41
0.2
  0
VERTEX
  8
0
 10
204.821
 20
10.0996
 30
0.0
 40
0.2
 41
0.2
  0
VERTEX
  8
0
 10
204.821
 20
10.0831
 30
0.0
 40
0.2
 41
0.2
  0
VERTEX
  8
0
 10
204.85
 20
10.0294
 30
0.0
 40
0.2
 41
0.2
  0
VERTEX
  8
0
 10
204.902
 20
10.0004
 30
0.0
 40
0.2
 41
0.2
  0
VERTEX
  8
0
 10
204.92
 20
10.0004
 30
0.0
 40
0.2
 41
0.2
  0
VERTEX
  8
0
 10
214.122
 20
10.0004
 30
0.0
 40
0.2
 41
0.2
  0
VERTEX
  8
0
 10
217.587
 20
10.0004
 30
0.0
 40
0.2
 41
0.2
  0
VERTEX
  8
0
 10
217.607
 20
10.0004
 30
0.0
 40
0.2
 41
0.2
  0
VERTEX
  8
0
 10
217.668
 20
10.0432
 30
0.0
 40
0.2
 41
0.2
  0
VERTEX
  8
0
 10
217.673
 20
10.05
 30
0.0
 40
0.2
 41
0.2
  0
VERTEX
  8
0
 10
219.406
 20
13.05
 30
0.0
 40
0.2
 41
0.2
  0
VERTEX
  8
0
 10
224.007
 20
21.0192
 30
0.0
 40
0.2
 41
0.2
  0
VERTEX
  8
0
 10
224.014
 20
21.0316
 30
0.0
 40
0.2
 41
0.2
  0
VERTEX
  8
0
 10
224.017
 20
21.0964
 30
0.0
 40
0.2
 41
0.2
  0
VERTEX
  8
0
 10
223.981
 20
21.1487
 30
0.0
 40
0.2
 41
0.2
  0
VERTEX
  8
0
 10
223.97
 20
21.1557
 30
0.0
 40
0.2
 41
0.2
  0
VERTEX
  8
0
 10
218.86
 20
24.106
 30
0.0
 40
0.2
 41
0.2
  0
VERTEX
  8
0
 10
218.85
 20
24.1116
 30
0.0
 40
0.2
 41
0.2
  0
VERTEX
  8
0
 10
218.816
 20
24.1157
 30
0.0
 40
0.2
 41
0.2
  0
VERTEX
  8
0
 10
218.808
 20
24.0923
 30
0.0
 40
0.2
 41
0.2
  0
VERTEX
  8
0
 10
218.826
 20
24.0771
 30
0.0
 40
0.2
 41
0.2
  0
VERTEX
  8
0
 10
218.855
 20
24.0978
 30
0.0
 40
0.2
 41
0.2
  0
VERTEX
  8
0
 10
218.86
 20
24.106
 30
0.0
 40
0.2
 41
0.2
  0
VERTEX
  8
0
 10
225.26
 20
35.191
 30
0.0
 40
0.2
 41
0.2
  0
VERTEX
  8
0
 10
225.264
 20
35.2006
 30
0.0
 40
0.2
 41
0.2
  0
VERTEX
  8
0
 10
225.268
 20
35.2351
 30
0.0
 40
0.2
 41
0.2
  0
VERTEX
  8
0
 10
225.246
 20
35.2433
 30
0.0
 40
0.2
 41
0.2
  0
VERTEX
  8
0
 10
225.231
 20
35.2254
 30
0.0
 40
0.2
 41
0.2
  0
VERTEX
  8
0
 10
225.25
 20
35.1965
 30
0.0
 40
0.2
 41
0.2
  0
VERTEX
  8
0
 10
225.26
 20
35.191
 30
0.0
 40
0.2
 41
0.2
  0
VERTEX
  8
0
 10
230.37
 20
32.2419
 30
0.0
 40
0.2
 41
0.2
  0
VERTEX
  8
0
 10
230.38
 20
32.2351
 30
0.0
 40
0.2
 41
0.2
  0
VERTEX
  8
0
 10
230.445
 20
32.2323
 30
0.0
 40
0.2
 41
0.2
  0
VERTEX
  8
0
 10
230.499
 20
32.2667
 30
0.0
 40
0.2
 41
0.2
  0
VERTEX
  8
0
 10
230.506
 20
32.2778
 30
0.0
 40
0.2
 41
0.2
  0
VERTEX
  8
0
 10
236.506
 20
42.6695
 30
0.0
 40
0.2
 41
0.2
  0
VERTEX
  8
0
 10
236.513
 20
42.6819
 30
0.0
 40
0.2
 41
0.2
  0
VERTEX
  8
0
 10
236.517
 20
42.7468
 30
0.0
 40
0.2
 41
0.2
  0
VERTEX
  8
0
 10
236.481
 20
42.8004
 30
0.0
 40
0.2
 41
0.2
  0
VERTEX
  8
0
 10
236.47
 20
42.8075
 30
0.0
 40
0.2
 41
0.2
  0
VERTEX
  8
0
 10
231.36
 20
45.7563
 30
0.0
 40
0.2
 41
0.2
  0
VERTEX
  8
0
 10
231.351
 20
45.762
 30
0.0
 40
0.2
 41
0.2
  0
VERTEX
  8
0
 10
231.316
 20
45.7659
 30
0.0
 40
0.2
 41
0.2
  0
VERTEX
  8
0
 10
231.308
 20
45.744
 30
0.0
 40
0.2
 41
0.2
  0
VERTEX
  8
0
 10
231.326
 20
45.7274
 30
0.0
 40
0.2
 41
0.2
  0
VERTEX
  8
0
 10
231.355
 20
45.7482
 30
0.0
 40
0.2
 41
0.2
  0
VERTEX
  8
0
 10
231.36
 20
45.7563
 30
0.0
 40
0.2
 41
0.2
  0
VERTEX
  8
0
 10
237.76
 20
56.8427
 30
0.0
 40
0.2
 41
0.2
  0
VERTEX
  8
0
 10
237.764
 20
56.8523
 30
0.0
 40
0.2
 41
0.2
  0
VERTEX
  8
0
 10
237.768
 20
56.8868
 30
0.0
 40
0.2
 41
0.2
  0
VERTEX
  8
0
 10
237.746
 20
56.8935
 30
0.0
 40
0.2
 41
0.2
  0
VERTEX
  8
0
 10
237.731
 20
56.8759
 30
0.0
 40
0.2
 41
0.2
  0
VERTEX
  8
0
 10
237.75
 20
56.8484
 30
0.0
 40
0.2
 41
0.2
  0
VERTEX
  8
0
 10
237.76
 20
56.8427
 30
0.0
 40
0.2
 41
0.2
  0
VERTEX
  8
0
 10
242.87
 20
53.8925
 30
0.0
 40
0.2
 41
0.2
  0
VERTEX
  8
0
 10
242.88
 20
53.8854
 30
0.0
 40
0.2
 41
0.2
  0
VERTEX
  8
0
 10
242.945
 20
53.8826
 30
0.0
 40
0.2
 41
0.2
  0
VERTEX
  8
0
 10
242.999
 20
53.9171
 30
0.0
 40
0.2
 41
0.2
  0
VERTEX
  8
0
 10
243.006
 20
53.9281
 30
0.0
 40
0.2
 41
0.2
  0
VERTEX
  8
0
 10
249.006
 20
64.3213
 30
0.0
 40
0.2
 41
0.2
  0
VERTEX
  8
0
 10
249.013
 20
64.3336
 30
0.0
 40
0.2
 41
0.2
  0
VERTEX
  8
0
 10
249.017
 20
64.3985
 30
0.0
 40
0.2
 41
0.2
  0
VERTEX
  8
0
 10
248.981
 20
64.4507
 30
0.0
 40
0.2
 41
0.2
  0
VERTEX
  8
0
 10
248.97
 20
64.4578
 30
0.0
 40
0.2
 41
0.2
  0
VERTEX
  8
0
 10
243.86
 20
67.4067
 30
0.0
 40
0.2
 41
0.2
  0
VERTEX
  8
0
 10
243.851
 20
67.4123
 30
0.0
 40
0.2
 41
0.2
  0
VERTEX
  8
0
 10
243.816
 20
67.4165
 30
0.0
 40
0.2
 41
0.2
  0
VERTEX
  8
0
 10
243.808
 20
67.3943
 30
0.0
 40
0.2
 41
0.2
  0
VERTEX
  8
0
 10
243.826
 20
67.3791
 30
0.0
 40
0.2
 41
0.2
  0
VERTEX
  8
0
 10
243.855
 20
67.3985
 30
0.0
 40
0.2
 41
0.2
  0
VERTEX
  8
0
 10
243.86
 20
67.4067
 30
0.0
 40
0.2
 41
0.2
  0
VERTEX
  8
0
 10
250.26
 20
78.4931
 30
0.0
 40
0.2
 41
0.2
  0
VERTEX
  8
0
 10
250.264
 20
78.5026
 30
0.0
 40
0.2
 41
0.2
  0
VERTEX
  8
0
 10
250.268
 20
78.5372
 30
0.0
 40
0.2
 41
0.2
  0
VERTEX
  8
0
 10
250.246
 20
78.5442
 30
0.0
 40
0.2
 41
0.2
  0
VERTEX
  8
0
 10
250.23
 20
78.5262
 30
0.0
 40
0.2
 41
0.2
  0
VERTEX
  8
0
 10
250.25
 20
78.4987
 30
0.0
 40
0.2
 41
0.2
  0
VERTEX
  8
0
 10
250.26
 20
78.4931
 30
0.0
 40
0.2
 41
0.2
  0
VERTEX
  8
0
 10
255.37
 20
75.5428
 30
0.0
 40
0.2
 41
0.2
  0
VERTEX
  8
0
 10
255.381
 20
75.5357
 30
0.0
 40
0.2
 41
0.2
  0
VERTEX
  8
0
 10
255.446
 20
75.5329
 30
0.0
 40
0.2
 41
0.2
  0
VERTEX
  8
0
 10
255.499
 20
75.5675
 30
0.0
 40
0.2
 41
0.2
  0
VERTEX
  8
0
 10
255.506
 20
75.5784
 30
0.0
 40
0.2
 41
0.2
  0
VERTEX
  8
0
 10
261.506
 20
85.9716
 30
0.0
 40
0.2
 41
0.2
  0
VERTEX
  8
0
 10
261.513
 20
85.9839
 30
0.0
 40
0.2
 41
0.2
  0
VERTEX
  8
0
 10
261.516
 20
86.0474
 30
0.0
 40
0.2
 41
0.2
  0
VERTEX
  8
0
 10
261.481
 20
86.1011
 30
0.0
 40
0.2
 41
0.2
  0
VERTEX
  8
0
 10
261.47
 20
86.1081
 30
0.0
 40
0.2
 41
0.2
  0
VERTEX
  8
0
 10
256.36
 20
89.0584
 30
0.0
 40
0.2
 41
0.2
  0
VERTEX
  8
0
 10
256.351
 20
89.064
 30
0.0
 40
0.2
 41
0.2
  0
VERTEX
  8
0
 10
256.316
 20
89.0683
 30
0.0
 40
0.2
 41
0.2
  0
VERTEX
  8
0
 10
256.308
 20
89.0446
 30
0.0
 40
0.2
 41
0.2
  0
VERTEX
  8
0
 10
256.326
 20
89.0295
 30
0.0
 40
0.2
 41
0.2
  0
VERTEX
  8
0
 10
256.355
 20
89.0503
 30
0.0
 40
0.2
 41
0.2
  0
VERTEX
  8
0
 10
256.36
 20
89.0584
 30
0.0
 40
0.2
 41
0.2
  0
VERTEX
  8
0
 10
262.76
 20
100.143
 30
0.0
 40
0.2
 41
0.2
  0
VERTEX
  8
0
 10
262.764
 20
100.153
 30
0.0
 40
0.2
 41
0.2
  0
VERTEX
  8
0
 10
262.768
 20
100.187
 30
0.0
 40
0.2
 41
0.2
  0
VERTEX
  8
0
 10
262.745
 20
100.196
 30
0.0
 40
0.2
 41
0.2
  0
VERTEX
  8
0
 10
262.73
 20
100.178
 30
0.0
 40
0.2
 41
0.2
  0
VERTEX
  8
0
 10
262.751
 20
100.149
 30
0.0
 40
0.2
 41
0.2
  0
VERTEX
  8
0
 10
262.76
 20
100.143
 30
0.0
 40
0.2
 41
0.2
  0
VERTEX
  8
0
 10
267.87
 20
97.1931
 30
0.0
 40
0.2
 41
0.2
  0
VERTEX
  8
0
 10
267.881
 20
97.186
 30
0.0
 40
0.2
 41
0.2
  0
VERTEX
  8
0
 10
267.946
 20
97.1832
 30
0.0
 40
0.2
 41
0.2
  0
VERTEX
  8
0
 10
268
 20
97.2192
 30
0.0
 40
0.2
 41
0.2
  0
VERTEX
  8
0
 10
268.006
 20
97.2301
 30
0.0
 40
0.2
 41
0.2
  0
VERTEX
  8
0
 10
274.006
 20
107.622
 30
0.0
 40
0.2
 41
0.2
  0
VERTEX
  8
0
 10
274.013
 20
107.634
 30
0.0
 40
0.2
 41
0.2
  0
VERTEX
  8
0
 10
274.016
 20
107.699
 30
0.0
 40
0.2
 41
0.2
  0
VERTEX
  8
0
 10
273.982
 20
107.752
 30
0.0
 40
0.2
 41
0.2
  0
VERTEX
  8
0
 10
273.97
 20
107.758
 30
0.0
 40
0.2
 41
0.2
  0
VERTEX
  8
0
 10
268.861
 20
110.709
 30
0.0
 40
0.2
 41
0.2
  0
VERTEX
  8
0
 10
268.851
 20
110.714
 30
0.0
 40
0.2
 41
0.2
  0
VERTEX
  8
0
 10
268.817
 20
110.719
 30
0.0
 40
0.2
 41
0.2
  0
VERTEX
  8
0
 10
268.809
 20
110.695
 30
0.0
 40
0.2
 41
0.2
  0
VERTEX
  8
0
 10
268.826
 20
110.68
 30
0.0
 40
0.2
 41
0.2
  0
VERTEX
  8
0
 10
268.855
 20
110.701
 30
0.0
 40
0.2
 41
0.2
  0
VERTEX
  8
0
 10
268.861
 20
110.709
 30
0.0
 40
0.2
 41
0.2
  0
VERTEX
  8
0
 10
275.261
 20
121.794
 30
0.0
 40
0.2
 41
0.2
  0
VERTEX
  8
0
 10
275.264
 20
121.804
 30
0.0
 40
0.2
 41
0.2
  0
VERTEX
  8
0
 10
275.269
 20
121.838
 30
0.0
 40
0.2
 41
0.2
  0
VERTEX
  8
0
 10
275.245
 20
121.846
 30
0.0
 40
0.2
 41
0.2
  0
VERTEX
  8
0
 10
275.23
 20
121.828
 30
0.0
 40
0.2
 41
0.2
  0
VERTEX
  8
0
 10
275.251
 20
121.799
 30
0.0
 40
0.2
 41
0.2
  0
VERTEX
  8
0
 10
275.261
 20
121.794
 30
0.0
 40
0.2
 41
0.2
  0
VERTEX
  8
0
 10
280.37
 20
118.843
 30
0.0
 40
0.2
 41
0.2
  0
VERTEX
  8
0
 10
280.381
 20
118.836
 30
0.0
 40
0.2
 41
0.2
  0
VERTEX
  8
0
 10
280.446
 20
118.834
 30
0.0
 40
0.2
 41
0.2
  0
VERTEX
  8
0
 10
280.5
 20
118.87
 30
0.0
 40
0.2
 41
0.2
  0
VERTEX
  8
0
 10
280.507
 20
118.88
 30
0.0
 40
0.2
 41
0.2
  0
VERTEX
  8
0
 10
285.108
 20
126.85
 30
0.0
 40
0.2
 41
0.2
  0
VERTEX
  8
0
 10
286.84
 20
129.85
 30
0.0
 40
0.2
 41
0.2
  0
VERTEX
  8
0
 10
286.844
 20
129.858
 30
0.0
 40
0.2
 41
0.2
  0
VERTEX
  8
0
 10
286.844
 20
129.944
 30
0.0
 40
0.2
 41
0.2
  0
VERTEX
  8
0
 10
286.84
 20
129.95
 30
0.0
 40
0.2
 41
0.2
  0
VERTEX
  8
0
 10
285.108
 20
132.95
 30
0.0
 40
0.2
 41
0.2
  0
VERTEX
  8
0
 10
280.507
 20
140.92
 30
0.0
 40
0.2
 41
0.2
  0
VERTEX
  8
0
 10
280.5
 20
140.932
 30
0.0
 40
0.2
 41
0.2
  0
VERTEX
  8
0
 10
280.446
 20
140.968
 30
0.0
 40
0.2
 41
0.2
  0
VERTEX
  8
0
 10
280.381
 20
140.964
 30
0.0
 40
0.2
 41
0.2
  0
VERTEX
  8
0
 10
280.37
 20
140.957
 30
0.0
 40
0.2
 41
0.2
  0
VERTEX
  8
0
 10
275.261
 20
138.006
 30
0.0
 40
0.2
 41
0.2
  0
VERTEX
  8
0
 10
275.251
 20
138.002
 30
0.0
 40
0.2
 41
0.2
  0
VERTEX
  8
0
 10
275.23
 20
137.973
 30
0.0
 40
0.2
 41
0.2
  0
VERTEX
  8
0
 10
275.245
 20
137.956
 30
0.0
 40
0.2
 41
0.2
  0
VERTEX
  8
0
 10
275.269
 20
137.964
 30
0.0
 40
0.2
 41
0.2
  0
VERTEX
  8
0
 10
275.264
 20
137.998
 30
0.0
 40
0.2
 41
0.2
  0
VERTEX
  8
0
 10
275.261
 20
138.006
 30
0.0
 40
0.2
 41
0.2
  0
VERTEX
  8
0
 10
268.861
 20
149.091
 30
0.0
 40
0.2
 41
0.2
  0
VERTEX
  8
0
 10
268.855
 20
149.101
 30
0.0
 40
0.2
 41
0.2
  0
VERTEX
  8
0
 10
268.826
 20
149.122
 30
0.0
 40
0.2
 41
0.2
  0
VERTEX
  8
0
 10
268.809
 20
149.106
 30
0.0
 40
0.2
 41
0.2
  0
VERTEX
  8
0
 10
268.817
 20
149.083
 30
0.0
 40
0.2
 41
0.2
  0
VERTEX
  8
0
 10
268.851
 20
149.087
 30
0.0
 40
0.2
 41
0.2
  0
VERTEX
  8
0
 10
268.861
 20
149.091
 30
0.0
 40
0.2
 41
0.2
  0
VERTEX
  8
0
 10
273.97
 20
152.042
 30
0.0
 40
0.2
 41
0.2
  0
VERTEX
  8
0
 10
273.982
 20
152.049
 30
0.0
 40
0.2
 41
0.2
  0
VERTEX
  8
0
 10
274.016
 20
152.102
 30
0.0
 40
0.2
 41
0.2
  0
VERTEX
  8
0
 10
274.013
 20
152.167
 30
0.0
 40
0.2
 41
0.2
  0
VERTEX
  8
0
 10
274.006
 20
152.178
 30
0.0
 40
0.2
 41
0.2
  0
VERTEX
  8
0
 10
268.006
 20
162.57
 30
0.0
 40
0.2
 41
0.2
  0
VERTEX
  8
0
 10
268
 20
162.582
 30
0.0
 40
0.2
 41
0.2
  0
VERTEX
  8
0
 10
267.946
 20
162.618
 30
0.0
 40
0.2
 41
0.2
  0
VERTEX
  8
0
 10
267.881
 20
162.614
 30
0.0
 40
0.2
 41
0.2
  0
VERTEX
  8
0
 10
267.87
 20
162.607
 30
0.0
 40
0.2
 41
0.2
  0
VERTEX
  8
0
 10
262.76
 20
159.657
 30
0.0
 40
0.2
 41
0.2
  0
VERTEX
  8
0
 10
262.751
 20
159.653
 30
0.0
 40
0.2
 41
0.2
  0
VERTEX
  8
0
 10
262.73
 20
159.624
 30
0.0
 40
0.2
 41
0.2
  0
VERTEX
  8
0
 10
262.745
 20
159.606
 30
0.0
 40
0.2
 41
0.2
  0
VERTEX
  8
0
 10
262.768
 20
159.614
 30
0.0
 40
0.2
 41
0.2
  0
VERTEX
  8
0
 10
262.764
 20
159.649
 30
0.0
 40
0.2
 41
0.2
  0
VERTEX
  8
0
 10
262.76
 20
159.657
 30
0.0
 40
0.2
 41
0.2
  0
VERTEX
  8
0
 10
256.36
 20
170.742
 30
0.0
 40
0.2
 41
0.2
  0
VERTEX
  8
0
 10
256.355
 20
170.751
 30
0.0
 40
0.2
 41
0.2
  0
VERTEX
  8
0
 10
256.326
 20
170.772
 30
0.0
 40
0.2
 41
0.2
  0
VERTEX
  8
0
 10
256.308
 20
170.757
 30
0.0
 40
0.2
 41
0.2
  0
VERTEX
  8
0
 10
256.316
 20
170.734
 30
0.0
 40
0.2
 41
0.2
  0
VERTEX
  8
0
 10
256.351
 20
170.737
 30
0.0
 40
0.2
 41
0.2
  0
VERTEX
  8
0
 10
256.36
 20
170.742
 30
0.0
 40
0.2
 41
0.2
  0
VERTEX
  8
0
 10
261.47
 20
173.692
 30
0.0
 40
0.2
 41
0.2
  0
VERTEX
  8
0
 10
261.481
 20
173.699
 30
0.0
 40
0.2
 41
0.2
  0
VERTEX
  8
0
 10
261.516
 20
173.753
 30
0.0
 40
0.2
 41
0.2
  0
VERTEX
  8
0
 10
261.513
 20
173.817
 30
0.0
 40
0.2
 41
0.2
  0
VERTEX
  8
0
 10
261.506
 20
173.828
 30
0.0
 40
0.2
 41
0.2
  0
VERTEX
  8
0
 10
255.506
 20
184.222
 30
0.0
 40
0.2
 41
0.2
  0
VERTEX
  8
0
 10
255.499
 20
184.234
 30
0.0
 40
0.2
 41
0.2
  0
VERTEX
  8
0
 10
255.446
 20
184.269
 30
0.0
 40
0.2
 41
0.2
  0
VERTEX
  8
0
 10
255.381
 20
184.264
 30
0.0
 40
0.2
 41
0.2
  0
VERTEX
  8
0
 10
255.37
 20
184.258
 30
0.0
 40
0.2
 41
0.2
  0
VERTEX
  8
0
 10
250.26
 20
181.307
 30
0.0
 40
0.2
 41
0.2
  0
VERTEX
  8
0
 10
250.25
 20
181.303
 30
0.0
 40
0.2
 41
0.2
  0
VERTEX
  8
0
 10
250.23
 20
181.276
 30
0.0
 40
0.2
 41
0.2
  0
VERTEX
  8
0
 10
250.246
 20
181.258
 30
0.0
 40
0.2
 41
0.2
  0
VERTEX
  8
0
 10
250.268
 20
181.264
 30
0.0
 40
0.2
 41
0.2
  0
VERTEX
  8
0
 10
250.264
 20
181.299
 30
0.0
 40
0.2
 41
0.2
  0
VERTEX
  8
0
 10
250.26
 20
181.307
 30
0.0
 40
0.2
 41
0.2
  0
VERTEX
  8
0
 10
243.86
 20
192.393
 30
0.0
 40
0.2
 41
0.2
  0
VERTEX
  8
0
 10
243.855
 20
192.403
 30
0.0
 40
0.2
 41
0.2
  0
VERTEX
  8
0
 10
243.826
 20
192.422
 30
0.0
 40
0.2
 41
0.2
  0
VERTEX
  8
0
 10
243.808
 20
192.407
 30
0.0
 40
0.2
 41
0.2
  0
VERTEX
  8
0
 10
243.816
 20
192.385
 30
0.0
 40
0.2
 41
0.2
  0
VERTEX
  8
0
 10
243.851
 20
192.389
 30
0.0
 40
0.2
 41
0.2
  0
VERTEX
  8
0
 10
243.86
 20
192.393
 30
0.0
 40
0.2
 41
0.2
  0
VERTEX
  8
0
 10
248.97
 20
195.343
 30
0.0
 40
0.2
 41
0.2
  0
VERTEX
  8
0
 10
248.981
 20
195.349
 30
0.0
 40
0.2
 41
0.2
  0
VERTEX
  8
0
 10
249.017
 20
195.404
 30
0.0
 40
0.2
 41
0.2
  0
VERTEX
  8
0
 10
249.013
 20
195.468
 30
0.0
 40
0.2
 41
0.2
  0
VERTEX
  8
0
 10
249.006
 20
195.479
 30
0.0
 40
0.2
 41
0.2
  0
VERTEX
  8
0
 10
243.006
 20
205.872
 30
0.0
 40
0.2
 41
0.2
  0
VERTEX
  8
0
 10
242.999
 20
205.884
 30
0.0
 40
0.2
 41
0.2
  0
VERTEX
  8
0
 10
242.945
 20
205.919
 30
0.0
 40
0.2
 41
0.2
  0
VERTEX
  8
0
 10
242.88
 20
205.915
 30
0.0
 40
0.2
 41
0.2
  0
VERTEX
  8
0
 10
242.87
 20
205.908
 30
0.0
 40
0.2
 41
0.2
  0
VERTEX
  8
0
 10
237.76
 20
202.959
 30
0.0
 40
0.2
 41
0.2
  0
VERTEX
  8
0
 10
237.75
 20
202.955
 30
0.0
 40
0.2
 41
0.2
  0
VERTEX
  8
0
 10
237.731
 20
202.926
 30
0.0
 40
0.2
 41
0.2
  0
VERTEX
  8
0
 10
237.746
 20
202.908
 30
0.0
 40
0.2
 41
0.2
  0
VERTEX
  8
0
 10
237.768
 20
202.916
 30
0.0
 40
0.2
 41
0.2
  0
VERTEX
  8
0
 10
237.764
 20
202.951
 30
0.0
 40
0.2
 41
0.2
  0
VERTEX
  8
0
 10
237.76
 20
202.959
 30
0.0
 40
0.2
 41
0.2
  0
VERTEX
  8
0
 10
231.36
 20
214.044
 30
0.0
 40
0.2
 41
0.2
  0
VERTEX
  8
0
 10
231.355
 20
214.054
 30
0.0
 40
0.2
 41
0.2
  0
VERTEX
  8
0
 10
231.326
 20
214.074
 30
0.0
 40
0.2
 41
0.2
  0
VERTEX
  8
0
 10
231.308
 20
214.059
 30
0.0
 40
0.2
 41
0.2
  0
VERTEX
  8
0
 10
231.316
 20
214.036
 30
0.0
 40
0.2
 41
0.2
  0
VERTEX
  8
0
 10
231.351
 20
214.04
 30
0.0
 40
0.2
 41
0.2
  0
VERTEX
  8
0
 10
231.36
 20
214.044
 30
0.0
 40
0.2
 41
0.2
  0
VERTEX
  8
0
 10
236.47
 20
216.994
 30
0.0
 40
0.2
 41
0.2
  0
VERTEX
  8
0
 10
236.481
 20
217.001
 30
0.0
 40
0.2
 41
0.2
  0
VERTEX
  8
0
 10
236.517
 20
217.055
 30
0.0
 40
0.2
 41
0.2
  0
VERTEX
  8
0
 10
236.513
 20
217.12
 30
0.0
 40
0.2
 41
0.2
  0
VERTEX
  8
0
 10
236.506
 20
217.13
 30
0.0
 40
0.2
 41
0.2
  0
VERTEX
  8
0
 10
230.506
 20
227.522
 30
0.0
 40
0.2
 41
0.2
  0
VERTEX
  8
0
 10
230.499
 20
227.535
 30
0.0
 40
0.2
 41
0.2
  0
VERTEX
  8
0
 10
230.445
 20
227.571
 30
0.0
 40
0.2
 41
0.2
  0
VERTEX
  8
0
 10
230.38
 20
227.566
 30
0.0
 40
0.2
 41
0.2
  0
VERTEX
  8
0
 10
230.37
 20
227.56
 30
0.0
 40
0.2
 41
0.2
  0
VERTEX
  8
0
 10
225.26
 20
224.609
 30
0.0
 40
0.2
 41
0.2
  0
VERTEX
  8
0
 10
225.25
 20
224.605
 30
0.0
 40
0.2
 41
0.2
  0
VERTEX
  8
0
 10
225.231
 20
224.576
 30
0.0
 40
0.2
 41
0.2
  0
VERTEX
  8
0
 10
225.246
 20
224.558
 30
0.0
 40
0.2
 41
0.2
  0
VERTEX
  8
0
 10
225.268
 20
224.566
 30
0.0
 40
0.2
 41
0.2
  0
VERTEX
  8
0
 10
225.264
 20
224.601
 30
0.0
 40
0.2
 41
0.2
  0
VERTEX
  8
0
 10
225.26
 20
224.609
 30
0.0
 40
0.2
 41
0.2
  0
VERTEX
  8
0
 10
218.86
 20
235.694
 30
0.0
 40
0.2
 41
0.2
  0
VERTEX
  8
0
 10
218.855
 20
235.704
 30
0.0
 40
0.2
 41
0.2
  0
VERTEX
  8
0
 10
218.826
 20
235.724
 30
0.0
 40
0.2
 41
0.2
  0
VERTEX
  8
0
 10
218.808
 20
235.709
 30
0.0
 40
0.2
 41
0.2
  0
VERTEX
  8
0
 10
218.816
 20
235.686
 30
0.0
 40
0.2
 41
0.2
  0
VERTEX
  8
0
 10
218.85
 20
235.69
 30
0.0
 40
0.2
 41
0.2
  0
VERTEX
  8
0
 10
218.86
 20
235.694
 30
0.0
 40
0.2
 41
0.2
  0
VERTEX
  8
0
 10
223.97
 20
238.645
 30
0.0
 40
0.2
 41
0.2
  0
VERTEX
  8
0
 10
223.981
 20
238.651
 30
0.0
 40
0.2
 41
0.2
  0
VERTEX
  8
0
 10
224.017
 20
238.705
 30
0.0
 40
0.2
 41
0.2
  0
VERTEX
  8
0
 10
224.014
 20
238.77
 30
0.0
 40
0.2
 41
0.2
  0
VERTEX
  8
0
 10
224.007
 20
238.781
 30
0.0
 40
0.2
 41
0.2
  0
VERTEX
  8
0
 10
219.406
 20
246.75
 30
0.0
 40
0.2
 41
0.2
  0
VERTEX
  8
0
 10
217.673
 20
249.75
 30
0.0
 40
0.2
 41
0.2
  0
VERTEX
  8
0
 10
217.668
 20
249.759
 30
0.0
 40
0.2
 41
0.2
  0
VERTEX
  8
0
 10
217.606
 20
249.801
 30
0.0
 40
0.2
 41
0.2
  0
VERTEX
  8
0
 10
217.587
 20
249.801
 30
0.0
 40
0.2
 41
0.2
  0
VERTEX
  8
0
 10
214.122
 20
249.801
 30
0.0
 40
0.2
 41
0.2
  0
VERTEX
  8
0
 10
204.92
 20
249.801
 30
0.0
 40
0.2
 41
0.2
  0
VERTEX
  8
0
 10
204.902
 20
249.801
 30
0.0
 40
0.2
 41
0.2
  0
VERTEX
  8
0
 10
204.85
 20
249.772
 30
0.0
 40
0.2
 41
0.2
  0
VERTEX
  8
0
 10
204.821
 20
249.718
 30
0.0
 40
0.2
 41
0.2
  0
VERTEX
  8
0
 10
204.821
 20
249.701
 30
0.0
 40
0.2
 41
0.2
  0
VERTEX
  8
0
 10
204.821
 20
243.801
 30
0.0
 40
0.2
 41
0.2
  0
VERTEX
  8
0
 10
204.821
 20
243.792
 30
0.0
 40
0.2
 41
0.2
  0
VERTEX
  8
0
 10
204.834
 20
243.76
 30
0.0
 40
0.2
 41
0.2
  0
VERTEX
  8
0
 10
204.858
 20
243.764
 30
0.0
 40
0.2
 41
0.2
  0
VERTEX
  8
0
 10
204.862
 20
243.787
 30
0.0
 40
0.2
 41
0.2
  0
VERTEX
  8
0
 10
204.83
 20
243.801
 30
0.0
 40
0.2
 41
0.2
  0
VERTEX
  8
0
 10
204.821
 20
243.801
 30
0.0
 40
0.2
 41
0.2
  0
VERTEX
  8
0
 10
192.02
 20
243.801
 30
0.0
 40
0.2
 41
0.2
  0
VERTEX
  8
0
 10
192.009
 20
243.801
 30
0.0
 40
0.2
 41
0.2
  0
VERTEX
  8
0
 10
191.977
 20
243.787
 30
0.0
 40
0.2
 41
0.2
  0
VERTEX
  8
0
 10
191.981
 20
243.764
 30
0.0
 40
0.2
 41
0.2
  0
VERTEX
  8
0
 10
192.005
 20
243.76
 30
0.0
 40
0.2
 41
0.2
  0
VERTEX
  8
0
 10
192.02
 20
243.792
 30
0.0
 40
0.2
 41
0.2
  0
VERTEX
  8
0
 10
192.02
 20
243.801
 30
0.0
 40
0.2
 41
0.2
  0
VERTEX
  8
0
 10
192.02
 20
249.701
 30
0.0
 40
0.2
 41
0.2
  0
VERTEX
  8
0
 10
192.02
 20
249.718
 30
0.0
 40
0.2
 41
0.2
  0
VERTEX
  8
0
 10
191.99
 20
249.772
 30
0.0
 40
0.2
 41
0.2
  0
VERTEX
  8
0
 10
191.936
 20
249.801
 30
0.0
 40
0.2
 41
0.2
  0
VERTEX
  8
0
 10
191.919
 20
249.801
 30
0.0
 40
0.2
 41
0.2
  0
VERTEX
  8
0
 10
179.919
 20
249.801
 30
0.0
 40
0.2
 41
0.2
  0
VERTEX
  8
0
 10
179.901
 20
249.801
 30
0.0
 40
0.2
 41
0.2
  0
VERTEX
  8
0
 10
179.849
 20
249.772
 30
0.0
 40
0.2
 41
0.2
  0
VERTEX
  8
0
 10
179.82
 20
249.718
 30
0.0
 40
0.2
 41
0.2
  0
VERTEX
  8
0
 10
179.82
 20
249.701
 30
0.0
 40
0.2
 41
0.2
  0
VERTEX
  8
0
 10
179.82
 20
243.801
 30
0.0
 40
0.2
 41
0.2
  0
VERTEX
  8
0
 10
179.82
 20
243.792
 30
0.0
 40
0.2
 41
0.2
  0
VERTEX
  8
0
 10
179.834
 20
243.76
 30
0.0
 40
0.2
 41
0.2
  0
VERTEX
  8
0
 10
179.857
 20
243.764
 30
0.0
 40
0.2
 41
0.2
  0
VERTEX
  8
0
 10
179.862
 20
243.787
 30
0.0
 40
0.2
 41
0.2
  0
VERTEX
  8
0
 10
179.83
 20
243.801
 30
0.0
 40
0.2
 41
0.2
  0
VERTEX
  8
0
 10
179.82
 20
243.801
 30
0.0
 40
0.2
 41
0.2
  0
VERTEX
  8
0
 10
167.019
 20
243.801
 30
0.0
 40
0.2
 41
0.2
  0
VERTEX
  8
0
 10
167.009
 20
243.801
 30
0.0
 40
0.2
 41
0.2
  0
VERTEX
  8
0
 10
166.977
 20
243.787
 30
0.0
 40
0.2
 41
0.2
  0
VERTEX
  8
0
 10
166.982
 20
243.764
 30
0.0
 40
0.2
 41
0.2
  0
VERTEX
  8
0
 10
167.004
 20
243.76
 30
0.0
 40
0.2
 41
0.2
  0
VERTEX
  8
0
 10
167.019
 20
243.792
 30
0.0
 40
0.2
 41
0.2
  0
VERTEX
  8
0
 10
167.019
 20
243.801
 30
0.0
 40
0.2
 41
0.2
  0
VERTEX
  8
0
 10
167.019
 20
249.701
 30
0.0
 40
0.2
 41
0.2
  0
VERTEX
  8
0
 10
167.019
 20
249.718
 30
0.0
 40
0.2
 41
0.2
  0
VERTEX
  8
0
 10
166.991
 20
249.772
 30
0.0
 40
0.2
 41
0.2
  0
VERTEX
  8
0
 10
166.937
 20
249.801
 30
0.0
 40
0.2
 41
0.2
  0
VERTEX
  8
0
 10
166.92
 20
249.801
 30
0.0
 40
0.2
 41
0.2
  0
VERTEX
  8
0
 10
154.921
 20
249.801
 30
0.0
 40
0.2
 41
0.2
  0
VERTEX
  8
0
 10
154.903
 20
249.801
 30
0.0
 40
0.2
 41
0.2
  0
VERTEX
  8
0
 10
154.849
 20
249.772
 30
0.0
 40
0.2
 41
0.2
  0
VERTEX
  8
0
 10
154.82
 20
249.718
 30
0.0
 40
0.2
 41
0.2
  0
VERTEX
  8
0
 10
154.82
 20
249.701
 30
0.0
 40
0.2
 41
0.2
  0
VERTEX
  8
0
 10
154.82
 20
243.801
 30
0.0
 40
0.2
 41
0.2
  0
VERTEX
  8
0
 10
154.82
 20
243.792
 30
0.0
 40
0.2
 41
0.2
  0
VERTEX
  8
0
 10
154.833
 20
243.76
 30
0.0
 40
0.2
 41
0.2
  0
VERTEX
  8
0
 10
154.857
 20
243.764
 30
0.0
 40
0.2
 41
0.2
  0
VERTEX
  8
0
 10
154.861
 20
243.787
 30
0.0
 40
0.2
 41
0.2
  0
VERTEX
  8
0
 10
154.83
 20
243.801
 30
0.0
 40
0.2
 41
0.2
  0
VERTEX
  8
0
 10
154.82
 20
243.801
 30
0.0
 40
0.2
 41
0.2
  0
VERTEX
  8
0
 10
142.019
 20
243.801
 30
0.0
 40
0.2
 41
0.2
  0
VERTEX
  8
0
 10
142.008
 20
243.801
 30
0.0
 40
0.2
 41
0.2
  0
VERTEX
  8
0
 10
141.976
 20
243.787
 30
0.0
 40
0.2
 41
0.2
  0
VERTEX
  8
0
 10
141.982
 20
243.764
 30
0.0
 40
0.2
 41
0.2
  0
VERTEX
  8
0
 10
142.004
 20
243.76
 30
0.0
 40
0.2
 41
0.2
  0
VERTEX
  8
0
 10
142.019
 20
243.792
 30
0.0
 40
0.2
 41
0.2
  0
VERTEX
  8
0
 10
142.019
 20
243.801
 30
0.0
 40
0.2
 41
0.2
  0
VERTEX
  8
0
 10
142.019
 20
249.701
 30
0.0
 40
0.2
 41
0.2
  0
VERTEX
  8
0
 10
142.019
 20
249.718
 30
0.0
 40
0.2
 41
0.2
  0
VERTEX
  8
0
 10
141.99
 20
249.772
 30
0.0
 40
0.2
 41
0.2
  0
VERTEX
  8
0
 10
141.937
 20
249.801
 30
0.0
 40
0.2
 41
0.2
  0
VERTEX
  8
0
 10
141.92
 20
249.801
 30
0.0
 40
0.2
 41
0.2
  0
VERTEX
  8
0
 10
129.92
 20
249.801
 30
0.0
 40
0.2
 41
0.2
  0
VERTEX
  8
0
 10
129.902
 20
249.801
 30
0.0
 40
0.2
 41
0.2
  0
VERTEX
  8
0
 10
129.848
 20
249.772
 30
0.0
 40
0.2
 41
0.2
  0
VERTEX
  8
0
 10
129.819
 20
249.718
 30
0.0
 40
0.2
 41
0.2
  0
VERTEX
  8
0
 10
129.819
 20
249.701
 30
0.0
 40
0.2
 41
0.2
  0
VERTEX
  8
0
 10
129.819
 20
243.801
 30
0.0
 40
0.2
 41
0.2
  0
VERTEX
  8
0
 10
129.819
 20
243.792
 30
0.0
 40
0.2
 41
0.2
  0
VERTEX
  8
0
 10
129.833
 20
243.76
 30
0.0
 40
0.2
 41
0.2
  0
VERTEX
  8
0
 10
129.857
 20
243.764
 30
0.0
 40
0.2
 41
0.2
  0
VERTEX
  8
0
 10
129.861
 20
243.787
 30
0.0
 40
0.2
 41
0.2
  0
VERTEX
  8
0
 10
129.829
 20
243.801
 30
0.0
 40
0.2
 41
0.2
  0
VERTEX
  8
0
 10
129.819
 20
243.801
 30
0.0
 40
0.2
 41
0.2
  0
VERTEX
  8
0
 10
117.02
 20
243.801
 30
0.0
 40
0.2
 41
0.2
  0
VERTEX
  8
0
 10
117.009
 20
243.801
 30
0.0
 40
0.2
 41
0.2
  0
VERTEX
  8
0
 10
116.978
 20
243.787
 30
0.0
 40
0.2
 41
0.2
  0
VERTEX
  8
0
 10
116.982
 20
243.764
 30
0.0
 40
0.2
 41
0.2
  0
VERTEX
  8
0
 10
117.005
 20
243.76
 30
0.0
 40
0.2
 41
0.2
  0
VERTEX
  8
0
 10
117.02
 20
243.792
 30
0.0
 40
0.2
 41
0.2
  0
VERTEX
  8
0
 10
117.02
 20
243.801
 30
0.0
 40
0.2
 41
0.2
  0
VERTEX
  8
0
 10
117.02
 20
249.701
 30
0.0
 40
0.2
 41
0.2
  0
VERTEX
  8
0
 10
117.02
 20
249.718
 30
0.0
 40
0.2
 41
0.2
  0
VERTEX
  8
0
 10
116.99
 20
249.772
 30
0.0
 40
0.2
 41
0.2
  0
VERTEX
  8
0
 10
116.936
 20
249.801
 30
0.0
 40
0.2
 41
0.2
  0
VERTEX
  8
0
 10
116.92
 20
249.801
 30
0.0
 40
0.2
 41
0.2
  0
VERTEX
  8
0
 10
104.92
 20
249.801
 30
0.0
 40
0.2
 41
0.2
  0
VERTEX
  8
0
 10
104.902
 20
249.801
 30
0.0
 40
0.2
 41
0.2
  0
VERTEX
  8
0
 10
104.849
 20
249.772
 30
0.0
 40
0.2
 41
0.2
  0
VERTEX
  8
0
 10
104.821
 20
249.718
 30
0.0
 40
0.2
 41
0.2
  0
VERTEX
  8
0
 10
104.821
 20
249.701
 30
0.0
 40
0.2
 41
0.2
  0
VERTEX
  8
0
 10
104.821
 20
243.801
 30
0.0
 40
0.2
 41
0.2
  0
VERTEX
  8
0
 10
104.821
 20
243.792
 30
0.0
 40
0.2
 41
0.2
  0
VERTEX
  8
0
 10
104.834
 20
243.76
 30
0.0
 40
0.2
 41
0.2
  0
VERTEX
  8
0
 10
104.858
 20
243.764
 30
0.0
 40
0.2
 41
0.2
  0
VERTEX
  8
0
 10
104.862
 20
243.787
 30
0.0
 40
0.2
 41
0.2
  0
VERTEX
  8
0
 10
104.83
 20
243.801
 30
0.0
 40
0.2
 41
0.2
  0
VERTEX
  8
0
 10
104.821
 20
243.801
 30
0.0
 40
0.2
 41
0.2
  0
VERTEX
  8
0
 10
92.02
 20
243.801
 30
0.0
 40
0.2
 41
0.2
  0
VERTEX
  8
0
 10
92.009
 20
243.801
 30
0.0
 40
0.2
 41
0.2
  0
VERTEX
  8
0
 10
91.9773
 20
243.787
 30
0.0
 40
0.2
 41
0.2
  0
VERTEX
  8
0
 10
91.9812
 20
243.764
 30
0.0
 40
0.2
 41
0.2
  0
VERTEX
  8
0
 10
92.0048
 20
243.76
 30
0.0
 40
0.2
 41
0.2
  0
VERTEX
  8
0
 10
92.02
 20
243.792
 30
0.0
 40
0.2
 41
0.2
  0
VERTEX
  8
0
 10
92.02
 20
243.801
 30
0.0
 40
0.2
 41
0.2
  0
VERTEX
  8
0
 10
92.02
 20
249.701
 30
0.0
 40
0.2
 41
0.2
  0
VERTEX
  8
0
 10
92.02
 20
249.718
 30
0.0
 40
0.2
 41
0.2
  0
VERTEX
  8
0
 10
91.9896
 20
249.772
 30
0.0
 40
0.2
 41
0.2
  0
VERTEX
  8
0
 10
91.9357
 20
249.801
 30
0.0
 40
0.2
 41
0.2
  0
VERTEX
  8
0
 10
91.9194
 20
249.801
 30
0.0
 40
0.2
 41
0.2
  0
VERTEX
  8
0
 10
82.7169
 20
249.801
 30
0.0
 40
0.2
 41
0.2
  0
VERTEX
  8
0
 10
79.2536
 20
249.801
 30
0.0
 40
0.2
 41
0.2
  0
VERTEX
  8
0
 10
79.2318
 20
249.801
 30
0.0
 40
0.2
 41
0.2
  0
VERTEX
  8
0
 10
79.1711
 20
249.759
 30
0.0
 40
0.2
 41
0.2
  0
VERTEX
  8
0
 10
79.1669
 20
249.75
 30
0.0
 40
0.2
 41
0.2
  0
VERTEX
  8
0
 10
77.4347
 20
246.75
 30
0.0
 40
0.2
 41
0.2
  0
VERTEX
  8
0
 10
72.8334
 20
238.781
 30
0.0
 40
0.2
 41
0.2
  0
VERTEX
  8
0
 10
72.8267
 20
238.77
 30
0.0
 40
0.2
 41
0.2
  0
VERTEX
  8
0
 10
72.8225
 20
238.705
 30
0.0
 40
0.2
 41
0.2
  0
VERTEX
  8
0
 10
72.8567
 20
238.651
 30
0.0
 40
0.2
 41
0.2
  0
VERTEX
  8
0
 10
72.8694
 20
238.645
 30
0.0
 40
0.2
 41
0.2
  0
VERTEX
  8
0
 10
77.9791
 20
235.694
 30
0.0
 40
0.2
 41
0.2
  0
VERTEX
  8
0
 10
77.9872
 20
235.69
 30
0.0
 40
0.2
 41
0.2
  0
VERTEX
  8
0
 10
78.0217
 20
235.686
 30
0.0
 40
0.2
 41
0.2
  0
VERTEX
  8
0
 10
78.0302
 20
235.709
 30
0.0
 40
0.2
 41
0.2
  0
VERTEX
  8
0
 10
78.0122
 20
235.724
 30
0.0
 40
0.2
 41
0.2
  0
VERTEX
  8
0
 10
77.9833
 20
235.704
 30
0.0
 40
0.2
 41
0.2
  0
VERTEX
  8
0
 10
77.9791
 20
235.694
 30
0.0
 40
0.2
 41
0.2
  0
VERTEX
  8
0
 10
71.5793
 20
224.609
 30
0.0
 40
0.2
 41
0.2
  0
VERTEX
  8
0
 10
71.574
 20
224.601
 30
0.0
 40
0.2
 41
0.2
  0
VERTEX
  8
0
 10
71.5698
 20
224.566
 30
0.0
 40
0.2
 41
0.2
  0
VERTEX
  8
0
 10
71.5931
 20
224.558
 30
0.0
 40
0.2
 41
0.2
  0
VERTEX
  8
0
 10
71.6082
 20
224.576
 30
0.0
 40
0.2
 41
0.2
  0
VERTEX
  8
0
 10
71.5878
 20
224.605
 30
0.0
 40
0.2
 41
0.2
  0
VERTEX
  8
0
 10
71.5793
 20
224.609
 30
0.0
 40
0.2
 41
0.2
  0
VERTEX
  8
0
 10
66.4697
 20
227.56
 30
0.0
 40
0.2
 41
0.2
  0
VERTEX
  8
0
 10
66.4573
 20
227.566
 30
0.0
 40
0.2
 41
0.2
  0
VERTEX
  8
0
 10
66.3924
 20
227.571
 30
0.0
 40
0.2
 41
0.2
  0
VERTEX
  8
0
 10
66.3402
 20
227.535
 30
0.0
 40
0.2
 41
0.2
  0
VERTEX
  8
0
 10
66.3332
 20
227.522
 30
0.0
 40
0.2
 41
0.2
  0
VERTEX
  8
0
 10
60.3331
 20
217.13
 30
0.0
 40
0.2
 41
0.2
  0
VERTEX
  8
0
 10
60.3264
 20
217.12
 30
0.0
 40
0.2
 41
0.2
  0
VERTEX
  8
0
 10
60.3222
 20
217.055
 30
0.0
 40
0.2
 41
0.2
  0
VERTEX
  8
0
 10
60.3582
 20
217.001
 30
0.0
 40
0.2
 41
0.2
  0
VERTEX
  8
0
 10
60.3705
 20
216.994
 30
0.0
 40
0.2
 41
0.2
  0
VERTEX
  8
0
 10
65.4787
 20
214.044
 30
0.0
 40
0.2
 41
0.2
  0
VERTEX
  8
0
 10
65.4872
 20
214.04
 30
0.0
 40
0.2
 41
0.2
  0
VERTEX
  8
0
 10
65.5214
 20
214.036
 30
0.0
 40
0.2
 41
0.2
  0
VERTEX
  8
0
 10
65.5299
 20
214.059
 30
0.0
 40
0.2
 41
0.2
  0
VERTEX
  8
0
 10
65.5119
 20
214.074
 30
0.0
 40
0.2
 41
0.2
  0
VERTEX
  8
0
 10
65.483
 20
214.054
 30
0.0
 40
0.2
 41
0.2
  0
VERTEX
  8
0
 10
65.4787
 20
214.044
 30
0.0
 40
0.2
 41
0.2
  0
VERTEX
  8
0
 10
59.0793
 20
202.959
 30
0.0
 40
0.2
 41
0.2
  0
VERTEX
  8
0
 10
59.0737
 20
202.951
 30
0.0
 40
0.2
 41
0.2
  0
VERTEX
  8
0
 10
59.0695
 20
202.916
 30
0.0
 40
0.2
 41
0.2
  0
VERTEX
  8
0
 10
59.0931
 20
202.908
 30
0.0
 40
0.2
 41
0.2
  0
VERTEX
  8
0
 10
59.1083
 20
202.926
 30
0.0
 40
0.2
 41
0.2
  0
VERTEX
  8
0
 10
59.0875
 20
202.955
 30
0.0
 40
0.2
 41
0.2
  0
VERTEX
  8
0
 10
59.0793
 20
202.959
 30
0.0
 40
0.2
 41
0.2
  0
VERTEX
  8
0
 10
53.9694
 20
205.908
 30
0.0
 40
0.2
 41
0.2
  0
VERTEX
  8
0
 10
53.957
 20
205.915
 30
0.0
 40
0.2
 41
0.2
  0
VERTEX
  8
0
 10
53.8939
 20
205.919
 30
0.0
 40
0.2
 41
0.2
  0
VERTEX
  8
0
 10
53.8399
 20
205.884
 30
0.0
 40
0.2
 41
0.2
  0
VERTEX
  8
0
 10
53.8332
 20
205.872
 30
0.0
 40
0.2
 41
0.2
  0
VERTEX
  8
0
 10
47.8331
 20
195.479
 30
0.0
 40
0.2
 41
0.2
  0
VERTEX
  8
0
 10
47.8261
 20
195.468
 30
0.0
 40
0.2
 41
0.2
  0
VERTEX
  8
0
 10
47.8222
 20
195.404
 30
0.0
 40
0.2
 41
0.2
  0
VERTEX
  8
0
 10
47.8578
 20
195.349
 30
0.0
 40
0.2
 41
0.2
  0
VERTEX
  8
0
 10
47.8702
 20
195.343
 30
0.0
 40
0.2
 41
0.2
  0
VERTEX
  8
0
 10
52.9802
 20
192.393
 30
0.0
 40
0.2
 41
0.2
  0
VERTEX
  8
0
 10
52.9883
 20
192.389
 30
0.0
 40
0.2
 41
0.2
  0
VERTEX
  8
0
 10
53.0229
 20
192.385
 30
0.0
 40
0.2
 41
0.2
  0
VERTEX
  8
0
 10
53.031
 20
192.407
 30
0.0
 40
0.2
 41
0.2
  0
VERTEX
  8
0
 10
53.013
 20
192.422
 30
0.0
 40
0.2
 41
0.2
  0
VERTEX
  8
0
 10
52.984
 20
192.403
 30
0.0
 40
0.2
 41
0.2
  0
VERTEX
  8
0
 10
52.9802
 20
192.393
 30
0.0
 40
0.2
 41
0.2
  0
VERTEX
  8
0
 10
46.579
 20
181.307
 30
0.0
 40
0.2
 41
0.2
  0
VERTEX
  8
0
 10
46.5737
 20
181.299
 30
0.0
 40
0.2
 41
0.2
  0
VERTEX
  8
0
 10
46.5695
 20
181.264
 30
0.0
 40
0.2
 41
0.2
  0
VERTEX
  8
0
 10
46.5928
 20
181.258
 30
0.0
 40
0.2
 41
0.2
  0
VERTEX
  8
0
 10
46.6079
 20
181.276
 30
0.0
 40
0.2
 41
0.2
  0
VERTEX
  8
0
 10
46.5875
 20
181.303
 30
0.0
 40
0.2
 41
0.2
  0
VERTEX
  8
0
 10
46.579
 20
181.307
 30
0.0
 40
0.2
 41
0.2
  0
VERTEX
  8
0
 10
41.4708
 20
184.258
 30
0.0
 40
0.2
 41
0.2
  0
VERTEX
  8
0
 10
41.4584
 20
184.264
 30
0.0
 40
0.2
 41
0.2
  0
VERTEX
  8
0
 10
41.3935
 20
184.269
 30
0.0
 40
0.2
 41
0.2
  0
VERTEX
  8
0
 10
41.3399
 20
184.234
 30
0.0
 40
0.2
 41
0.2
  0
VERTEX
  8
0
 10
41.3329
 20
184.222
 30
0.0
 40
0.2
 41
0.2
  0
VERTEX
  8
0
 10
35.3328
 20
173.828
 30
0.0
 40
0.2
 41
0.2
  0
VERTEX
  8
0
 10
35.3261
 20
173.817
 30
0.0
 40
0.2
 41
0.2
  0
VERTEX
  8
0
 10
35.3219
 20
173.753
 30
0.0
 40
0.2
 41
0.2
  0
VERTEX
  8
0
 10
35.3579
 20
173.699
 30
0.0
 40
0.2
 41
0.2
  0
VERTEX
  8
0
 10
35.3702
 20
173.692
 30
0.0
 40
0.2
 41
0.2
  0
VERTEX
  8
0
 10
40.4798
 20
170.742
 30
0.0
 40
0.2
 41
0.2
  0
VERTEX
  8
0
 10
40.4883
 20
170.737
 30
0.0
 40
0.2
 41
0.2
  0
VERTEX
  8
0
 10
40.5225
 20
170.734
 30
0.0
 40
0.2
 41
0.2
  0
VERTEX
  8
0
 10
40.5296
 20
170.757
 30
0.0
 40
0.2
 41
0.2
  0
VERTEX
  8
0
 10
40.5116
 20
170.772
 30
0.0
 40
0.2
 41
0.2
  0
VERTEX
  8
0
 10
40.4841
 20
170.751
 30
0.0
 40
0.2
 41
0.2
  0
VERTEX
  8
0
 10
40.4798
 20
170.742
 30
0.0
 40
0.2
 41
0.2
  0
VERTEX
  8
0
 10
34.0789
 20
159.657
 30
0.0
 40
0.2
 41
0.2
  0
VERTEX
  8
0
 10
34.0734
 20
159.649
 30
0.0
 40
0.2
 41
0.2
  0
VERTEX
  8
0
 10
34.0692
 20
159.614
 30
0.0
 40
0.2
 41
0.2
  0
VERTEX
  8
0
 10
34.0927
 20
159.606
 30
0.0
 40
0.2
 41
0.2
  0
VERTEX
  8
0
 10
34.1078
 20
159.624
 30
0.0
 40
0.2
 41
0.2
  0
VERTEX
  8
0
 10
34.0872
 20
159.653
 30
0.0
 40
0.2
 41
0.2
  0
VERTEX
  8
0
 10
34.0789
 20
159.657
 30
0.0
 40
0.2
 41
0.2
  0
VERTEX
  8
0
 10
28.9705
 20
162.607
 30
0.0
 40
0.2
 41
0.2
  0
VERTEX
  8
0
 10
28.9581
 20
162.614
 30
0.0
 40
0.2
 41
0.2
  0
VERTEX
  8
0
 10
28.8933
 20
162.618
 30
0.0
 40
0.2
 41
0.2
  0
VERTEX
  8
0
 10
28.8396
 20
162.582
 30
0.0
 40
0.2
 41
0.2
  0
VERTEX
  8
0
 10
28.8327
 20
162.57
 30
0.0
 40
0.2
 41
0.2
  0
VERTEX
  8
0
 10
22.8327
 20
152.178
 30
0.0
 40
0.2
 41
0.2
  0
VERTEX
  8
0
 10
22.8258
 20
152.167
 30
0.0
 40
0.2
 41
0.2
  0
VERTEX
  8
0
 10
22.8217
 20
152.102
 30
0.0
 40
0.2
 41
0.2
  0
VERTEX
  8
0
 10
22.8575
 20
152.049
 30
0.0
 40
0.2
 41
0.2
  0
VERTEX
  8
0
 10
22.8699
 20
152.042
 30
0.0
 40
0.2
 41
0.2
  0
VERTEX
  8
0
 10
27.9797
 20
149.091
 30
0.0
 40
0.2
 41
0.2
  0
VERTEX
  8
0
 10
27.9879
 20
149.087
 30
0.0
 40
0.2
 41
0.2
  0
VERTEX
  8
0
 10
28.0224
 20
149.083
 30
0.0
 40
0.2
 41
0.2
  0
VERTEX
  8
0
 10
28.0307
 20
149.106
 30
0.0
 40
0.2
 41
0.2
  0
VERTEX
  8
0
 10
28.0128
 20
149.122
 30
0.0
 40
0.2
 41
0.2
  0
VERTEX
  8
0
 10
27.9838
 20
149.101
 30
0.0
 40
0.2
 41
0.2
  0
VERTEX
  8
0
 10
27.9797
 20
149.091
 30
0.0
 40
0.2
 41
0.2
  0
VERTEX
  8
0
 10
21.5801
 20
138.006
 30
0.0
 40
0.2
 41
0.2
  0
VERTEX
  8
0
 10
21.5746
 20
137.998
 30
0.0
 40
0.2
 41
0.2
  0
VERTEX
  8
0
 10
21.5704
 20
137.964
 30
0.0
 40
0.2
 41
0.2
  0
VERTEX
  8
0
 10
21.5925
 20
137.956
 30
0.0
 40
0.2
 41
0.2
  0
VERTEX
  8
0
 10
21.6076
 20
137.973
 30
0.0
 40
0.2
 41
0.2
  0
VERTEX
  8
0
 10
21.5883
 20
138.002
 30
0.0
 40
0.2
 41
0.2
  0
VERTEX
  8
0
 10
21.5801
 20
138.006
 30
0.0
 40
0.2
 41
0.2
  0
VERTEX
  8
0
 10
16.4703
 20
140.957
 30
0.0
 40
0.2
 41
0.2
  0
VERTEX
  8
0
 10
16.4579
 20
140.964
 30
0.0
 40
0.2
 41
0.2
  0
VERTEX
  8
0
 10
16.3932
 20
140.968
 30
0.0
 40
0.2
 41
0.2
  0
VERTEX
  8
0
 10
16.3408
 20
140.932
 30
0.0
 40
0.2
 41
0.2
  0
VERTEX
  8
0
 10
16.3339
 20
140.92
 30
0.0
 40
0.2
 41
0.2
  0
VERTEX
  8
0
 10
11.7326
 20
132.95
 30
0.0
 40
0.2
 41
0.2
  0
VERTEX
  8
0
 10
10.0004
 20
129.95
 30
0.0
 40
0.2
 41
0.2
  0
VERTEX
  8
0
 10
9.9949
 20
129.944
 30
0.0
 40
0.2
 41
0.2
  0
VERTEX
  8
0
 10
9.9949
 20
129.858
 30
0.0
 40
0.2
 41
0.2
  0
VERTEX
  8
0
 10
10.0004
 20
129.85
 30
0.0
 40
0.2
 41
0.2
  0
VERTEX
  8
0
 10
11.7326
 20
126.85
 30
0.0
 40
0.2
 41
0.2
  0
VERTEX
  8
0
 10
16.3339
 20
118.88
 30
0.0
 40
0.2
 41
0.2
  0
VERTEX
  8
0
 10
16.3408
 20
118.87
 30
0.0
 40
0.2
 41
0.2
  0
VERTEX
  8
0
 10
16.3932
 20
118.834
 30
0.0
 40
0.2
 41
0.2
  0
VERTEX
  8
0
 10
16.4579
 20
118.836
 30
0.0
 40
0.2
 41
0.2
  0
VERTEX
  8
0
 10
16.4703
 20
118.843
 30
0.0
 40
0.2
 41
0.2
  0
VERTEX
  8
0
 10
21.5801
 20
121.794
 30
0.0
 40
0.2
 41
0.2
  0
VERTEX
  8
0
 10
21.5883
 20
121.799
 30
0.0
 40
0.2
 41
0.2
  0
VERTEX
  8
0
 10
21.6076
 20
121.828
 30
0.0
 40
0.2
 41
0.2
  0
VERTEX
  8
0
 10
21.5925
 20
121.846
 30
0.0
 40
0.2
 41
0.2
  0
VERTEX
  8
0
 10
21.5704
 20
121.838
 30
0.0
 40
0.2
 41
0.2
  0
VERTEX
  8
0
 10
21.5746
 20
121.804
 30
0.0
 40
0.2
 41
0.2
  0
VERTEX
  8
0
 10
21.5801
 20
121.794
 30
0.0
 40
0.2
 41
0.2
  0
VERTEX
  8
0
 10
27.9797
 20
110.709
 30
0.0
 40
0.2
 41
0.2
  0
VERTEX
  8
0
 10
27.9838
 20
110.701
 30
0.0
 40
0.2
 41
0.2
  0
VERTEX
  8
0
 10
28.0128
 20
110.68
 30
0.0
 40
0.2
 41
0.2
  0
VERTEX
  8
0
 10
28.0307
 20
110.695
 30
0.0
 40
0.2
 41
0.2
  0
VERTEX
  8
0
 10
28.0224
 20
110.719
 30
0.0
 40
0.2
 41
0.2
  0
VERTEX
  8
0
 10
27.9879
 20
110.714
 30
0.0
 40
0.2
 41
0.2
  0
VERTEX
  8
0
 10
27.9797
 20
110.709
 30
0.0
 40
0.2
 41
0.2
  0
VERTEX
  8
0
 10
22.8699
 20
107.758
 30
0.0
 40
0.2
 41
0.2
  0
VERTEX
  8
0
 10
22.8575
 20
107.752
 30
0.0
 40
0.2
 41
0.2
  0
VERTEX
  8
0
 10
22.8217
 20
107.699
 30
0.0
 40
0.2
 41
0.2
  0
VERTEX
  8
0
 10
22.8258
 20
107.634
 30
0.0
 40
0.2
 41
0.2
  0
VERTEX
  8
0
 10
22.8327
 20
107.622
 30
0.0
 40
0.2
 41
0.2
  0
VERTEX
  8
0
 10
28.8327
 20
97.2301
 30
0.0
 40
0.2
 41
0.2
  0
VERTEX
  8
0
 10
28.8396
 20
97.2192
 30
0.0
 40
0.2
 41
0.2
  0
VERTEX
  8
0
 10
28.8933
 20
97.1832
 30
0.0
 40
0.2
 41
0.2
  0
VERTEX
  8
0
 10
28.9581
 20
97.186
 30
0.0
 40
0.2
 41
0.2
  0
VERTEX
  8
0
 10
28.9705
 20
97.1931
 30
0.0
 40
0.2
 41
0.2
  0
VERTEX
  8
0
 10
34.0789
 20
100.143
 30
0.0
 40
0.2
 41
0.2
  0
VERTEX
  8
0
 10
34.0872
 20
100.149
 30
0.0
 40
0.2
 41
0.2
  0
VERTEX
  8
0
 10
34.1078
 20
100.178
 30
0.0
 40
0.2
 41
0.2
  0
VERTEX
  8
0
 10
34.0927
 20
100.196
 30
0.0
 40
0.2
 41
0.2
  0
VERTEX
  8
0
 10
34.0692
 20
100.187
 30
0.0
 40
0.2
 41
0.2
  0
VERTEX
  8
0
 10
34.0734
 20
100.153
 30
0.0
 40
0.2
 41
0.2
  0
VERTEX
  8
0
 10
34.0789
 20
100.143
 30
0.0
 40
0.2
 41
0.2
  0
VERTEX
  8
0
 10
40.4798
 20
89.0584
 30
0.0
 40
0.2
 41
0.2
  0
VERTEX
  8
0
 10
40.4841
 20
89.0503
 30
0.0
 40
0.2
 41
0.2
  0
VERTEX
  8
0
 10
40.5116
 20
89.0295
 30
0.0
 40
0.2
 41
0.2
  0
VERTEX
  8
0
 10
40.5296
 20
89.0446
 30
0.0
 40
0.2
 41
0.2
  0
VERTEX
  8
0
 10
40.5225
 20
89.0683
 30
0.0
 40
0.2
 41
0.2
  0
VERTEX
  8
0
 10
40.4883
 20
89.064
 30
0.0
 40
0.2
 41
0.2
  0
VERTEX
  8
0
 10
40.4798
 20
89.0584
 30
0.0
 40
0.2
 41
0.2
  0
VERTEX
  8
0
 10
35.3702
 20
86.1081
 30
0.0
 40
0.2
 41
0.2
  0
VERTEX
  8
0
 10
35.3579
 20
86.1011
 30
0.0
 40
0.2
 41
0.2
  0
VERTEX
  8
0
 10
35.3219
 20
86.0474
 30
0.0
 40
0.2
 41
0.2
  0
VERTEX
  8
0
 10
35.3261
 20
85.9839
 30
0.0
 40
0.2
 41
0.2
  0
VERTEX
  8
0
 10
35.3328
 20
85.9716
 30
0.0
 40
0.2
 41
0.2
  0
VERTEX
  8
0
 10
41.3329
 20
75.5784
 30
0.0
 40
0.2
 41
0.2
  0
VERTEX
  8
0
 10
41.3399
 20
75.5675
 30
0.0
 40
0.2
 41
0.2
  0
VERTEX
  8
0
 10
41.3935
 20
75.5329
 30
0.0
 40
0.2
 41
0.2
  0
VERTEX
  8
0
 10
41.4584
 20
75.5357
 30
0.0
 40
0.2
 41
0.2
  0
VERTEX
  8
0
 10
41.4708
 20
75.5428
 30
0.0
 40
0.2
 41
0.2
  0
VERTEX
  8
0
 10
46.579
 20
78.4931
 30
0.0
 40
0.2
 41
0.2
  0
VERTEX
  8
0
 10
46.5875
 20
78.4987
 30
0.0
 40
0.2
 41
0.2
  0
VERTEX
  8
0
 10
46.6079
 20
78.5262
 30
0.0
 40
0.2
 41
0.2
  0
VERTEX
  8
0
 10
46.5928
 20
78.5442
 30
0.0
 40
0.2
 41
0.2
  0
VERTEX
  8
0
 10
46.5695
 20
78.5372
 30
0.0
 40
0.2
 41
0.2
  0
VERTEX
  8
0
 10
46.5737
 20
78.5026
 30
0.0
 40
0.2
 41
0.2
  0
VERTEX
  8
0
 10
46.579
 20
78.4931
 30
0.0
 40
0.2
 41
0.2
  0
VERTEX
  8
0
 10
52.9802
 20
67.4067
 30
0.0
 40
0.2
 41
0.2
  0
VERTEX
  8
0
 10
52.984
 20
67.3985
 30
0.0
 40
0.2
 41
0.2
  0
VERTEX
  8
0
 10
53.013
 20
67.3791
 30
0.0
 40
0.2
 41
0.2
  0
VERTEX
  8
0
 10
53.031
 20
67.3943
 30
0.0
 40
0.2
 41
0.2
  0
VERTEX
  8
0
 10
53.0229
 20
67.4165
 30
0.0
 40
0.2
 41
0.2
  0
VERTEX
  8
0
 10
52.9883
 20
67.4123
 30
0.0
 40
0.2
 41
0.2
  0
VERTEX
  8
0
 10
52.9802
 20
67.4067
 30
0.0
 40
0.2
 41
0.2
  0
VERTEX
  8
0
 10
47.8702
 20
64.4578
 30
0.0
 40
0.2
 41
0.2
  0
VERTEX
  8
0
 10
47.8578
 20
64.4507
 30
0.0
 40
0.2
 41
0.2
  0
VERTEX
  8
0
 10
47.8222
 20
64.3985
 30
0.0
 40
0.2
 41
0.2
  0
VERTEX
  8
0
 10
47.8261
 20
64.3336
 30
0.0
 40
0.2
 41
0.2
  0
VERTEX
  8
0
 10
47.8331
 20
64.3213
 30
0.0
 40
0.2
 41
0.2
  0
VERTEX
  8
0
 10
53.8332
 20
53.9281
 30
0.0
 40
0.2
 41
0.2
  0
VERTEX
  8
0
 10
53.8399
 20
53.9171
 30
0.0
 40
0.2
 41
0.2
  0
VERTEX
  8
0
 10
53.8939
 20
53.8826
 30
0.0
 40
0.2
 41
0.2
  0
VERTEX
  8
0
 10
53.957
 20
53.8854
 30
0.0
 40
0.2
 41
0.2
  0
VERTEX
  8
0
 10
53.9694
 20
53.8925
 30
0.0
 40
0.2
 41
0.2
  0
VERTEX
  8
0
 10
59.0793
 20
56.8427
 30
0.0
 40
0.2
 41
0.2
  0
VERTEX
  8
0
 10
59.0875
 20
56.8484
 30
0.0
 40
0.2
 41
0.2
  0
VERTEX
  8
0
 10
59.1083
 20
56.8759
 30
0.0
 40
0.2
 41
0.2
  0
VERTEX
  8
0
 10
59.0931
 20
56.8935
 30
0.0
 40
0.2
 41
0.2
  0
VERTEX
  8
0
 10
59.0695
 20
56.8868
 30
0.0
 40
0.2
 41
0.2
  0
VERTEX
  8
0
 10
59.0737
 20
56.8523
 30
0.0
 40
0.2
 41
0.2
  0
VERTEX
  8
0
 10
59.0793
 20
56.8427
 30
0.0
 40
0.2
 41
0.2
  0
VERTEX
  8
0
 10
65.4787
 20
45.7563
 30
0.0
 40
0.2
 41
0.2
  0
VERTEX
  8
0
 10
65.483
 20
45.7482
 30
0.0
 40
0.2
 41
0.2
  0
VERTEX
  8
0
 10
65.5119
 20
45.7274
 30
0.0
 40
0.2
 41
0.2
  0
VERTEX
  8
0
 10
65.5299
 20
45.744
 30
0.0
 40
0.2
 41
0.2
  0
VERTEX
  8
0
 10
65.5214
 20
45.7659
 30
0.0
 40
0.2
 41
0.2
  0
VERTEX
  8
0
 10
65.4872
 20
45.762
 30
0.0
 40
0.2
 41
0.2
  0
VERTEX
  8
0
 10
65.4787
 20
45.7563
 30
0.0
 40
0.2
 41
0.2
  0
VERTEX
  8
0
 10
60.3705
 20
42.8075
 30
0.0
 40
0.2
 41
0.2
  0
VERTEX
  8
0
 10
60.3582
 20
42.8004
 30
0.0
 40
0.2
 41
0.2
  0
VERTEX
  8
0
 10
60.3222
 20
42.7468
 30
0.0
 40
0.2
 41
0.2
  0
VERTEX
  8
0
 10
60.3264
 20
42.6819
 30
0.0
 40
0.2
 41
0.2
  0
VERTEX
  8
0
 10
60.3331
 20
42.6695
 30
0.0
 40
0.2
 41
0.2
  0
VERTEX
  8
0
 10
66.3332
 20
32.2778
 30
0.0
 40
0.2
 41
0.2
  0
VERTEX
  8
0
 10
66.3402
 20
32.2667
 30
0.0
 40
0.2
 41
0.2
  0
VERTEX
  8
0
 10
66.3924
 20
32.2323
 30
0.0
 40
0.2
 41
0.2
  0
VERTEX
  8
0
 10
66.4573
 20
32.2351
 30
0.0
 40
0.2
 41
0.2
  0
VERTEX
  8
0
 10
66.4697
 20
32.2419
 30
0.0
 40
0.2
 41
0.2
  0
VERTEX
  8
0
 10
71.5793
 20
35.191
 30
0.0
 40
0.2
 41
0.2
  0
VERTEX
  8
0
 10
71.5878
 20
35.1965
 30
0.0
 40
0.2
 41
0.2
  0
VERTEX
  8
0
 10
71.6082
 20
35.2254
 30
0.0
 40
0.2
 41
0.2
  0
VERTEX
  8
0
 10
71.5931
 20
35.2433
 30
0.0
 40
0.2
 41
0.2
  0
VERTEX
  8
0
 10
71.5698
 20
35.2351
 30
0.0
 40
0.2
 41
0.2
  0
VERTEX
  8
0
 10
71.574
 20
35.2006
 30
0.0
 40
0.2
 41
0.2
  0
VERTEX
  8
0
 10
71.5793
 20
35.191
 30
0.0
 40
0.2
 41
0.2
  0
VERTEX
  8
0
 10
77.9791
 20
24.106
 30
0.0
 40
0.2
 41
0.2
  0
VERTEX
  8
0
 10
77.9833
 20
24.0978
 30
0.0
 40
0.2
 41
0.2
  0
VERTEX
  8
0
 10
78.0122
 20
24.0771
 30
0.0
 40
0.2
 41
0.2
  0
VERTEX
  8
0
 10
78.0302
 20
24.0923
 30
0.0
 40
0.2
 41
0.2
  0
VERTEX
  8
0
 10
78.0217
 20
24.1157
 30
0.0
 40
0.2
 41
0.2
  0
VERTEX
  8
0
 10
77.9872
 20
24.1116
 30
0.0
 40
0.2
 41
0.2
  0
VERTEX
  8
0
 10
77.9791
 20
24.106
 30
0.0
 40
0.2
 41
0.2
  0
VERTEX
  8
0
 10
72.8694
 20
21.1557
 30
0.0
 40
0.2
 41
0.2
  0
VERTEX
  8
0
 10
72.8567
 20
21.1487
 30
0.0
 40
0.2
 41
0.2
  0
VERTEX
  8
0
 10
72.8225
 20
21.0964
 30
0.0
 40
0.2
 41
0.2
  0
VERTEX
  8
0
 10
72.8267
 20
21.0316
 30
0.0
 40
0.2
 41
0.2
  0
VERTEX
  8
0
 10
72.8334
 20
21.0192
 30
0.0
 40
0.2
 41
0.2
  0
VERTEX
  8
0
 10
77.4347
 20
13.05
 30
0.0
 40
0.2
 41
0.2
  0
VERTEX
  8
0
 10
79.1669
 20
10.05
 30
0.0
 40
0.2
 41
0.2
  0
VERTEX
  8
0
 10
79.1711
 20
10.0432
 30
0.0
 40
0.2
 41
0.2
  0
VERTEX
  8
0
 10
79.2332
 20
10.0004
 30
0.0
 40
0.2
 41
0.2
  0
VERTEX
  8
0
 10
79.2536
 20
10.0004
 30
0.0
 40
0.2
 41
0.2
  0
VERTEX
  8
0
 10
82.7169
 20
10.0004
 30
0.0
 40
0.2
 41
0.2
  0
SEQEND
 8
0
  0
ENDSEC
  0
EOF
