  0
SECTION
  2
HEADER
  9
$ACADVER
  1
AC1009
  9
$FILLMODE
 70
 0
  9
$SPLFRAME
 70
 1
  9
$EXTMIN
 10
0
 20
0
 30
0.0
  9
$EXTMAX
 10
1058.33
 20
1058.33
 30
0.0
  0
ENDSEC
  0
SECTION
  2
TABLES
  0
TABLE
  2
LAYER
 70
1
  0
LAYER
  2
0
 70
     0
 62
     7
  6
CONTINUOUS
  0
ENDTAB
  0
ENDSEC
  0
SECTION
  2
ENTITIES
  0
POLYLINE
  8
0
 62
     5
 66
     1
 10
0
 20
0
 30
0.0
 70
     1
 40
0.566929
 41
0.566929
  0
VERTEX
  8
0
 10
27.8501
 20
35.1
 30
0.0
 40
0.2
 41
0.2
  0
VERTEX
  8
0
 10
27.8501
 20
34.9774
 30
0.0
 40
0.2
 41
0.2
  0
VERTEX
  8
0
 10
27.7785
 20
34.6081
 30
0.0
 40
0.2
 41
0.2
  0
VERTEX
  8
0
 10
27.6173
 20
34.2249
 30
0.0
 40
0.2
 41
0.2
  0
VERTEX
  8
0
 10
27.5718
 20
34.1533
 30
0.0
 40
0.2
 41
0.2
  0
VERTEX
  8
0
 10
27.5263
 20
34.083
 30
0.0
 40
0.2
 41
0.2
  0
VERTEX
  8
0
 10
27.2452
 20
33.7785
 30
0.0
 40
0.2
 41
0.2
  0
VERTEX
  8
0
 10
26.9034
 20
33.5442
 30
0.0
 40
0.2
 41
0.2
  0
VERTEX
  8
0
 10
26.8277
 20
33.5084
 30
0.0
 40
0.2
 41
0.2
  0
VERTEX
  8
0
 10
26.7505
 20
33.4739
 30
0.0
 40
0.2
 41
0.2
  0
VERTEX
  8
0
 10
26.3481
 20
33.3678
 30
0.0
 40
0.2
 41
0.2
  0
VERTEX
  8
0
 10
25.9333
 20
33.3568
 30
0.0
 40
0.2
 41
0.2
  0
VERTEX
  8
0
 10
25.8506
 20
33.3678
 30
0.0
 40
0.2
 41
0.2
  0
VERTEX
  8
0
 10
25.7666
 20
33.3802
 30
0.0
 40
0.2
 41
0.2
  0
VERTEX
  8
0
 10
25.3724
 20
33.5084
 30
0.0
 40
0.2
 41
0.2
  0
VERTEX
  8
0
 10
25.0169
 20
33.7234
 30
0.0
 40
0.2
 41
0.2
  0
VERTEX
  8
0
 10
24.9535
 20
33.7771
 30
0.0
 40
0.2
 41
0.2
  0
VERTEX
  8
0
 10
24.8901
 20
33.8322
 30
0.0
 40
0.2
 41
0.2
  0
VERTEX
  8
0
 10
24.6269
 20
34.1547
 30
0.0
 40
0.2
 41
0.2
  0
VERTEX
  8
0
 10
24.445
 20
34.5267
 30
0.0
 40
0.2
 41
0.2
  0
VERTEX
  8
0
 10
24.4216
 20
34.6067
 30
0.0
 40
0.2
 41
0.2
  0
VERTEX
  8
0
 10
24.3968
 20
34.688
 30
0.0
 40
0.2
 41
0.2
  0
VERTEX
  8
0
 10
24.3499
 20
35.1
 30
0.0
 40
0.2
 41
0.2
  0
VERTEX
  8
0
 10
24.3968
 20
35.5134
 30
0.0
 40
0.2
 41
0.2
  0
VERTEX
  8
0
 10
24.4216
 20
35.5935
 30
0.0
 40
0.2
 41
0.2
  0
VERTEX
  8
0
 10
24.445
 20
35.6747
 30
0.0
 40
0.2
 41
0.2
  0
VERTEX
  8
0
 10
24.6269
 20
36.0468
 30
0.0
 40
0.2
 41
0.2
  0
VERTEX
  8
0
 10
24.8901
 20
36.3679
 30
0.0
 40
0.2
 41
0.2
  0
VERTEX
  8
0
 10
24.9535
 20
36.4229
 30
0.0
 40
0.2
 41
0.2
  0
VERTEX
  8
0
 10
25.0169
 20
36.4779
 30
0.0
 40
0.2
 41
0.2
  0
VERTEX
  8
0
 10
25.3724
 20
36.6917
 30
0.0
 40
0.2
 41
0.2
  0
VERTEX
  8
0
 10
25.7666
 20
36.8212
 30
0.0
 40
0.2
 41
0.2
  0
VERTEX
  8
0
 10
25.8506
 20
36.8321
 30
0.0
 40
0.2
 41
0.2
  0
VERTEX
  8
0
 10
25.9333
 20
36.8445
 30
0.0
 40
0.2
 41
0.2
  0
VERTEX
  8
0
 10
26.3481
 20
36.8321
 30
0.0
 40
0.2
 41
0.2
  0
VERTEX
  8
0
 10
26.7505
 20
36.7273
 30
0.0
 40
0.2
 41
0.2
  0
VERTEX
  8
0
 10
26.8277
 20
36.6917
 30
0.0
 40
0.2
 41
0.2
  0
VERTEX
  8
0
 10
26.9034
 20
36.6571
 30
0.0
 40
0.2
 41
0.2
  0
VERTEX
  8
0
 10
27.2452
 20
36.4229
 30
0.0
 40
0.2
 41
0.2
  0
VERTEX
  8
0
 10
27.5263
 20
36.117
 30
0.0
 40
0.2
 41
0.2
  0
VERTEX
  8
0
 10
27.5718
 20
36.0468
 30
0.0
 40
0.2
 41
0.2
  0
VERTEX
  8
0
 10
27.6173
 20
35.9763
 30
0.0
 40
0.2
 41
0.2
  0
VERTEX
  8
0
 10
27.7785
 20
35.5935
 30
0.0
 40
0.2
 41
0.2
  0
VERTEX
  8
0
 10
27.8501
 20
35.2241
 30
0.0
 40
0.2
 41
0.2
  0
VERTEX
  8
0
 10
27.8501
 20
35.1
 30
0.0
 40
0.2
 41
0.2
  0
SEQEND
 8
0
  0
POLYLINE
  8
0
 62
     5
 66
     1
 10
0
 20
0
 30
0.0
 70
     1
 40
0.566929
 41
0.566929
  0
VERTEX
  8
0
 10
139.255
 20
35.1
 30
0.0
 40
0.2
 41
0.2
  0
VERTEX
  8
0
 10
139.255
 20
34.9774
 30
0.0
 40
0.2
 41
0.2
  0
VERTEX
  8
0
 10
139.183
 20
34.6081
 30
0.0
 40
0.2
 41
0.2
  0
VERTEX
  8
0
 10
139.022
 20
34.2249
 30
0.0
 40
0.2
 41
0.2
  0
VERTEX
  8
0
 10
138.976
 20
34.1533
 30
0.0
 40
0.2
 41
0.2
  0
VERTEX
  8
0
 10
138.931
 20
34.083
 30
0.0
 40
0.2
 41
0.2
  0
VERTEX
  8
0
 10
138.65
 20
33.7785
 30
0.0
 40
0.2
 41
0.2
  0
VERTEX
  8
0
 10
138.308
 20
33.5442
 30
0.0
 40
0.2
 41
0.2
  0
VERTEX
  8
0
 10
138.232
 20
33.5084
 30
0.0
 40
0.2
 41
0.2
  0
VERTEX
  8
0
 10
138.155
 20
33.4739
 30
0.0
 40
0.2
 41
0.2
  0
VERTEX
  8
0
 10
137.754
 20
33.3678
 30
0.0
 40
0.2
 41
0.2
  0
VERTEX
  8
0
 10
137.338
 20
33.3568
 30
0.0
 40
0.2
 41
0.2
  0
VERTEX
  8
0
 10
137.255
 20
33.3678
 30
0.0
 40
0.2
 41
0.2
  0
VERTEX
  8
0
 10
137.173
 20
33.3802
 30
0.0
 40
0.2
 41
0.2
  0
VERTEX
  8
0
 10
136.777
 20
33.5084
 30
0.0
 40
0.2
 41
0.2
  0
VERTEX
  8
0
 10
136.422
 20
33.7234
 30
0.0
 40
0.2
 41
0.2
  0
VERTEX
  8
0
 10
136.36
 20
33.7771
 30
0.0
 40
0.2
 41
0.2
  0
VERTEX
  8
0
 10
136.296
 20
33.8322
 30
0.0
 40
0.2
 41
0.2
  0
VERTEX
  8
0
 10
136.033
 20
34.1547
 30
0.0
 40
0.2
 41
0.2
  0
VERTEX
  8
0
 10
135.85
 20
34.5267
 30
0.0
 40
0.2
 41
0.2
  0
VERTEX
  8
0
 10
135.826
 20
34.6067
 30
0.0
 40
0.2
 41
0.2
  0
VERTEX
  8
0
 10
135.801
 20
34.688
 30
0.0
 40
0.2
 41
0.2
  0
VERTEX
  8
0
 10
135.755
 20
35.1
 30
0.0
 40
0.2
 41
0.2
  0
VERTEX
  8
0
 10
135.801
 20
35.5134
 30
0.0
 40
0.2
 41
0.2
  0
VERTEX
  8
0
 10
135.826
 20
35.5935
 30
0.0
 40
0.2
 41
0.2
  0
VERTEX
  8
0
 10
135.85
 20
35.6747
 30
0.0
 40
0.2
 41
0.2
  0
VERTEX
  8
0
 10
136.033
 20
36.0468
 30
0.0
 40
0.2
 41
0.2
  0
VERTEX
  8
0
 10
136.296
 20
36.3679
 30
0.0
 40
0.2
 41
0.2
  0
VERTEX
  8
0
 10
136.36
 20
36.4229
 30
0.0
 40
0.2
 41
0.2
  0
VERTEX
  8
0
 10
136.422
 20
36.4779
 30
0.0
 40
0.2
 41
0.2
  0
VERTEX
  8
0
 10
136.777
 20
36.6917
 30
0.0
 40
0.2
 41
0.2
  0
VERTEX
  8
0
 10
137.173
 20
36.8212
 30
0.0
 40
0.2
 41
0.2
  0
VERTEX
  8
0
 10
137.255
 20
36.8321
 30
0.0
 40
0.2
 41
0.2
  0
VERTEX
  8
0
 10
137.338
 20
36.8445
 30
0.0
 40
0.2
 41
0.2
  0
VERTEX
  8
0
 10
137.754
 20
36.8321
 30
0.0
 40
0.2
 41
0.2
  0
VERTEX
  8
0
 10
138.155
 20
36.7273
 30
0.0
 40
0.2
 41
0.2
  0
VERTEX
  8
0
 10
138.232
 20
36.6917
 30
0.0
 40
0.2
 41
0.2
  0
VERTEX
  8
0
 10
138.308
 20
36.6571
 30
0.0
 40
0.2
 41
0.2
  0
VERTEX
  8
0
 10
138.65
 20
36.4229
 30
0.0
 40
0.2
 41
0.2
  0
VERTEX
  8
0
 10
138.931
 20
36.117
 30
0.0
 40
0.2
 41
0.2
  0
VERTEX
  8
0
 10
138.976
 20
36.0468
 30
0.0
 40
0.2
 41
0.2
  0
VERTEX
  8
0
 10
139.022
 20
35.9763
 30
0.0
 40
0.2
 41
0.2
  0
VERTEX
  8
0
 10
139.183
 20
35.5935
 30
0.0
 40
0.2
 41
0.2
  0
VERTEX
  8
0
 10
139.255
 20
35.2241
 30
0.0
 40
0.2
 41
0.2
  0
VERTEX
  8
0
 10
139.255
 20
35.1
 30
0.0
 40
0.2
 41
0.2
  0
SEQEND
 8
0
  0
POLYLINE
  8
0
 62
     5
 66
     1
 10
0
 20
0
 30
0.0
 70
     1
 40
0.566929
 41
0.566929
  0
VERTEX
  8
0
 10
83.4528
 20
35.1
 30
0.0
 40
0.2
 41
0.2
  0
VERTEX
  8
0
 10
83.4528
 20
34.9843
 30
0.0
 40
0.2
 41
0.2
  0
VERTEX
  8
0
 10
83.385
 20
34.6356
 30
0.0
 40
0.2
 41
0.2
  0
VERTEX
  8
0
 10
83.2337
 20
34.276
 30
0.0
 40
0.2
 41
0.2
  0
VERTEX
  8
0
 10
83.1906
 20
34.2084
 30
0.0
 40
0.2
 41
0.2
  0
VERTEX
  8
0
 10
83.148
 20
34.1423
 30
0.0
 40
0.2
 41
0.2
  0
VERTEX
  8
0
 10
82.882
 20
33.8542
 30
0.0
 40
0.2
 41
0.2
  0
VERTEX
  8
0
 10
82.5595
 20
33.6324
 30
0.0
 40
0.2
 41
0.2
  0
VERTEX
  8
0
 10
82.4879
 20
33.5993
 30
0.0
 40
0.2
 41
0.2
  0
VERTEX
  8
0
 10
82.4149
 20
33.5662
 30
0.0
 40
0.2
 41
0.2
  0
VERTEX
  8
0
 10
82.036
 20
33.467
 30
0.0
 40
0.2
 41
0.2
  0
VERTEX
  8
0
 10
81.6448
 20
33.456
 30
0.0
 40
0.2
 41
0.2
  0
VERTEX
  8
0
 10
81.5675
 20
33.467
 30
0.0
 40
0.2
 41
0.2
  0
VERTEX
  8
0
 10
81.4888
 20
33.478
 30
0.0
 40
0.2
 41
0.2
  0
VERTEX
  8
0
 10
81.117
 20
33.5993
 30
0.0
 40
0.2
 41
0.2
  0
VERTEX
  8
0
 10
80.7805
 20
33.8019
 30
0.0
 40
0.2
 41
0.2
  0
VERTEX
  8
0
 10
80.7212
 20
33.8529
 30
0.0
 40
0.2
 41
0.2
  0
VERTEX
  8
0
 10
80.6609
 20
33.9053
 30
0.0
 40
0.2
 41
0.2
  0
VERTEX
  8
0
 10
80.4139
 20
34.2084
 30
0.0
 40
0.2
 41
0.2
  0
VERTEX
  8
0
 10
80.2418
 20
34.5598
 30
0.0
 40
0.2
 41
0.2
  0
VERTEX
  8
0
 10
80.2199
 20
34.6356
 30
0.0
 40
0.2
 41
0.2
  0
VERTEX
  8
0
 10
80.1963
 20
34.7114
 30
0.0
 40
0.2
 41
0.2
  0
VERTEX
  8
0
 10
80.1522
 20
35.1
 30
0.0
 40
0.2
 41
0.2
  0
VERTEX
  8
0
 10
80.1963
 20
35.4887
 30
0.0
 40
0.2
 41
0.2
  0
VERTEX
  8
0
 10
80.2199
 20
35.5646
 30
0.0
 40
0.2
 41
0.2
  0
VERTEX
  8
0
 10
80.2418
 20
35.6415
 30
0.0
 40
0.2
 41
0.2
  0
VERTEX
  8
0
 10
80.4139
 20
35.9929
 30
0.0
 40
0.2
 41
0.2
  0
VERTEX
  8
0
 10
80.6609
 20
36.2962
 30
0.0
 40
0.2
 41
0.2
  0
VERTEX
  8
0
 10
80.7212
 20
36.347
 30
0.0
 40
0.2
 41
0.2
  0
VERTEX
  8
0
 10
80.7805
 20
36.3996
 30
0.0
 40
0.2
 41
0.2
  0
VERTEX
  8
0
 10
81.117
 20
36.6007
 30
0.0
 40
0.2
 41
0.2
  0
VERTEX
  8
0
 10
81.4888
 20
36.7221
 30
0.0
 40
0.2
 41
0.2
  0
VERTEX
  8
0
 10
81.5675
 20
36.733
 30
0.0
 40
0.2
 41
0.2
  0
VERTEX
  8
0
 10
81.6448
 20
36.7453
 30
0.0
 40
0.2
 41
0.2
  0
VERTEX
  8
0
 10
82.036
 20
36.733
 30
0.0
 40
0.2
 41
0.2
  0
VERTEX
  8
0
 10
82.4149
 20
36.6339
 30
0.0
 40
0.2
 41
0.2
  0
VERTEX
  8
0
 10
82.4879
 20
36.6007
 30
0.0
 40
0.2
 41
0.2
  0
VERTEX
  8
0
 10
82.5595
 20
36.5689
 30
0.0
 40
0.2
 41
0.2
  0
VERTEX
  8
0
 10
82.882
 20
36.347
 30
0.0
 40
0.2
 41
0.2
  0
VERTEX
  8
0
 10
83.148
 20
36.0592
 30
0.0
 40
0.2
 41
0.2
  0
VERTEX
  8
0
 10
83.1906
 20
35.9914
 30
0.0
 40
0.2
 41
0.2
  0
VERTEX
  8
0
 10
83.2337
 20
35.9255
 30
0.0
 40
0.2
 41
0.2
  0
VERTEX
  8
0
 10
83.385
 20
35.5656
 30
0.0
 40
0.2
 41
0.2
  0
VERTEX
  8
0
 10
83.4528
 20
35.2171
 30
0.0
 40
0.2
 41
0.2
  0
VERTEX
  8
0
 10
83.4528
 20
35.1
 30
0.0
 40
0.2
 41
0.2
  0
SEQEND
 8
0
  0
POLYLINE
  8
0
 62
     5
 66
     1
 10
0
 20
0
 30
0.0
 70
     1
 40
0.566929
 41
0.566929
  0
VERTEX
  8
0
 10
16.0996
 20
10.0004
 30
0.0
 40
0.2
 41
0.2
  0
VERTEX
  8
0
 10
74.3024
 20
10.0004
 30
0.0
 40
0.2
 41
0.2
  0
VERTEX
  8
0
 10
74.319
 20
10.0004
 30
0.0
 40
0.2
 41
0.2
  0
VERTEX
  8
0
 10
74.3726
 20
10.0294
 30
0.0
 40
0.2
 41
0.2
  0
VERTEX
  8
0
 10
74.403
 20
10.0831
 30
0.0
 40
0.2
 41
0.2
  0
VERTEX
  8
0
 10
74.403
 20
10.0996
 30
0.0
 40
0.2
 41
0.2
  0
VERTEX
  8
0
 10
74.403
 20
17.9999
 30
0.0
 40
0.2
 41
0.2
  0
VERTEX
  8
0
 10
74.403
 20
18.011
 30
0.0
 40
0.2
 41
0.2
  0
VERTEX
  8
0
 10
74.3878
 20
18.0426
 30
0.0
 40
0.2
 41
0.2
  0
VERTEX
  8
0
 10
74.3645
 20
18.0385
 30
0.0
 40
0.2
 41
0.2
  0
VERTEX
  8
0
 10
74.3603
 20
18.0151
 30
0.0
 40
0.2
 41
0.2
  0
VERTEX
  8
0
 10
74.392
 20
17.9999
 30
0.0
 40
0.2
 41
0.2
  0
VERTEX
  8
0
 10
74.403
 20
17.9999
 30
0.0
 40
0.2
 41
0.2
  0
VERTEX
  8
0
 10
89.203
 20
17.9999
 30
0.0
 40
0.2
 41
0.2
  0
VERTEX
  8
0
 10
89.2129
 20
17.9999
 30
0.0
 40
0.2
 41
0.2
  0
VERTEX
  8
0
 10
89.2447
 20
18.0151
 30
0.0
 40
0.2
 41
0.2
  0
VERTEX
  8
0
 10
89.2404
 20
18.0385
 30
0.0
 40
0.2
 41
0.2
  0
VERTEX
  8
0
 10
89.2168
 20
18.0426
 30
0.0
 40
0.2
 41
0.2
  0
VERTEX
  8
0
 10
89.203
 20
18.011
 30
0.0
 40
0.2
 41
0.2
  0
VERTEX
  8
0
 10
89.203
 20
17.9999
 30
0.0
 40
0.2
 41
0.2
  0
VERTEX
  8
0
 10
89.203
 20
10.0996
 30
0.0
 40
0.2
 41
0.2
  0
VERTEX
  8
0
 10
89.203
 20
10.0831
 30
0.0
 40
0.2
 41
0.2
  0
VERTEX
  8
0
 10
89.232
 20
10.0294
 30
0.0
 40
0.2
 41
0.2
  0
VERTEX
  8
0
 10
89.2845
 20
10.0004
 30
0.0
 40
0.2
 41
0.2
  0
VERTEX
  8
0
 10
89.3025
 20
10.0004
 30
0.0
 40
0.2
 41
0.2
  0
VERTEX
  8
0
 10
147.505
 20
10.0004
 30
0.0
 40
0.2
 41
0.2
  0
VERTEX
  8
0
 10
147.522
 20
10.0004
 30
0.0
 40
0.2
 41
0.2
  0
VERTEX
  8
0
 10
147.575
 20
10.0294
 30
0.0
 40
0.2
 41
0.2
  0
VERTEX
  8
0
 10
147.604
 20
10.0831
 30
0.0
 40
0.2
 41
0.2
  0
VERTEX
  8
0
 10
147.604
 20
10.0996
 30
0.0
 40
0.2
 41
0.2
  0
VERTEX
  8
0
 10
147.604
 20
16.9995
 30
0.0
 40
0.2
 41
0.2
  0
VERTEX
  8
0
 10
147.604
 20
17.0105
 30
0.0
 40
0.2
 41
0.2
  0
VERTEX
  8
0
 10
147.589
 20
17.0422
 30
0.0
 40
0.2
 41
0.2
  0
VERTEX
  8
0
 10
147.567
 20
17.0381
 30
0.0
 40
0.2
 41
0.2
  0
VERTEX
  8
0
 10
147.562
 20
17.0146
 30
0.0
 40
0.2
 41
0.2
  0
VERTEX
  8
0
 10
147.593
 20
16.9995
 30
0.0
 40
0.2
 41
0.2
  0
VERTEX
  8
0
 10
147.604
 20
16.9995
 30
0.0
 40
0.2
 41
0.2
  0
VERTEX
  8
0
 10
152.702
 20
16.9995
 30
0.0
 40
0.2
 41
0.2
  0
VERTEX
  8
0
 10
152.718
 20
16.9995
 30
0.0
 40
0.2
 41
0.2
  0
VERTEX
  8
0
 10
152.772
 20
17.0298
 30
0.0
 40
0.2
 41
0.2
  0
VERTEX
  8
0
 10
152.801
 20
17.0835
 30
0.0
 40
0.2
 41
0.2
  0
VERTEX
  8
0
 10
152.801
 20
17.1001
 30
0.0
 40
0.2
 41
0.2
  0
VERTEX
  8
0
 10
152.801
 20
29.1
 30
0.0
 40
0.2
 41
0.2
  0
VERTEX
  8
0
 10
152.801
 20
29.118
 30
0.0
 40
0.2
 41
0.2
  0
VERTEX
  8
0
 10
152.772
 20
29.1717
 30
0.0
 40
0.2
 41
0.2
  0
VERTEX
  8
0
 10
152.718
 20
29.2006
 30
0.0
 40
0.2
 41
0.2
  0
VERTEX
  8
0
 10
152.702
 20
29.2006
 30
0.0
 40
0.2
 41
0.2
  0
VERTEX
  8
0
 10
147.604
 20
29.2006
 30
0.0
 40
0.2
 41
0.2
  0
VERTEX
  8
0
 10
147.593
 20
29.2006
 30
0.0
 40
0.2
 41
0.2
  0
VERTEX
  8
0
 10
147.562
 20
29.1869
 30
0.0
 40
0.2
 41
0.2
  0
VERTEX
  8
0
 10
147.567
 20
29.1634
 30
0.0
 40
0.2
 41
0.2
  0
VERTEX
  8
0
 10
147.589
 20
29.1593
 30
0.0
 40
0.2
 41
0.2
  0
VERTEX
  8
0
 10
147.604
 20
29.191
 30
0.0
 40
0.2
 41
0.2
  0
VERTEX
  8
0
 10
147.604
 20
29.2006
 30
0.0
 40
0.2
 41
0.2
  0
VERTEX
  8
0
 10
147.604
 20
40.9995
 30
0.0
 40
0.2
 41
0.2
  0
VERTEX
  8
0
 10
147.604
 20
41.0104
 30
0.0
 40
0.2
 41
0.2
  0
VERTEX
  8
0
 10
147.589
 20
41.0422
 30
0.0
 40
0.2
 41
0.2
  0
VERTEX
  8
0
 10
147.567
 20
41.0379
 30
0.0
 40
0.2
 41
0.2
  0
VERTEX
  8
0
 10
147.562
 20
41.0147
 30
0.0
 40
0.2
 41
0.2
  0
VERTEX
  8
0
 10
147.593
 20
40.9995
 30
0.0
 40
0.2
 41
0.2
  0
VERTEX
  8
0
 10
147.604
 20
40.9995
 30
0.0
 40
0.2
 41
0.2
  0
VERTEX
  8
0
 10
152.702
 20
40.9995
 30
0.0
 40
0.2
 41
0.2
  0
VERTEX
  8
0
 10
152.718
 20
40.9995
 30
0.0
 40
0.2
 41
0.2
  0
VERTEX
  8
0
 10
152.772
 20
41.0298
 30
0.0
 40
0.2
 41
0.2
  0
VERTEX
  8
0
 10
152.801
 20
41.0834
 30
0.0
 40
0.2
 41
0.2
  0
VERTEX
  8
0
 10
152.801
 20
41.1
 30
0.0
 40
0.2
 41
0.2
  0
VERTEX
  8
0
 10
152.801
 20
53.1001
 30
0.0
 40
0.2
 41
0.2
  0
VERTEX
  8
0
 10
152.801
 20
53.1178
 30
0.0
 40
0.2
 41
0.2
  0
VERTEX
  8
0
 10
152.772
 20
53.1717
 30
0.0
 40
0.2
 41
0.2
  0
VERTEX
  8
0
 10
152.718
 20
53.2007
 30
0.0
 40
0.2
 41
0.2
  0
VERTEX
  8
0
 10
152.702
 20
53.2007
 30
0.0
 40
0.2
 41
0.2
  0
VERTEX
  8
0
 10
147.604
 20
53.2007
 30
0.0
 40
0.2
 41
0.2
  0
VERTEX
  8
0
 10
147.593
 20
53.2007
 30
0.0
 40
0.2
 41
0.2
  0
VERTEX
  8
0
 10
147.562
 20
53.1869
 30
0.0
 40
0.2
 41
0.2
  0
VERTEX
  8
0
 10
147.567
 20
53.1633
 30
0.0
 40
0.2
 41
0.2
  0
VERTEX
  8
0
 10
147.589
 20
53.1594
 30
0.0
 40
0.2
 41
0.2
  0
VERTEX
  8
0
 10
147.604
 20
53.1908
 30
0.0
 40
0.2
 41
0.2
  0
VERTEX
  8
0
 10
147.604
 20
53.2007
 30
0.0
 40
0.2
 41
0.2
  0
VERTEX
  8
0
 10
147.604
 20
60.1003
 30
0.0
 40
0.2
 41
0.2
  0
VERTEX
  8
0
 10
147.604
 20
60.1183
 30
0.0
 40
0.2
 41
0.2
  0
VERTEX
  8
0
 10
147.575
 20
60.1708
 30
0.0
 40
0.2
 41
0.2
  0
VERTEX
  8
0
 10
147.522
 20
60.1998
 30
0.0
 40
0.2
 41
0.2
  0
VERTEX
  8
0
 10
147.505
 20
60.1998
 30
0.0
 40
0.2
 41
0.2
  0
VERTEX
  8
0
 10
138.402
 20
60.1998
 30
0.0
 40
0.2
 41
0.2
  0
VERTEX
  8
0
 10
138.391
 20
60.1998
 30
0.0
 40
0.2
 41
0.2
  0
VERTEX
  8
0
 10
138.359
 20
60.1857
 30
0.0
 40
0.2
 41
0.2
  0
VERTEX
  8
0
 10
138.365
 20
60.1624
 30
0.0
 40
0.2
 41
0.2
  0
VERTEX
  8
0
 10
138.387
 20
60.1581
 30
0.0
 40
0.2
 41
0.2
  0
VERTEX
  8
0
 10
138.402
 20
60.1899
 30
0.0
 40
0.2
 41
0.2
  0
VERTEX
  8
0
 10
138.402
 20
60.1998
 30
0.0
 40
0.2
 41
0.2
  0
VERTEX
  8
0
 10
138.402
 20
66.1003
 30
0.0
 40
0.2
 41
0.2
  0
VERTEX
  8
0
 10
138.402
 20
66.1183
 30
0.0
 40
0.2
 41
0.2
  0
VERTEX
  8
0
 10
138.373
 20
66.1705
 30
0.0
 40
0.2
 41
0.2
  0
VERTEX
  8
0
 10
138.319
 20
66.1995
 30
0.0
 40
0.2
 41
0.2
  0
VERTEX
  8
0
 10
138.303
 20
66.1995
 30
0.0
 40
0.2
 41
0.2
  0
VERTEX
  8
0
 10
125.302
 20
66.1995
 30
0.0
 40
0.2
 41
0.2
  0
VERTEX
  8
0
 10
125.284
 20
66.1995
 30
0.0
 40
0.2
 41
0.2
  0
VERTEX
  8
0
 10
125.232
 20
66.1705
 30
0.0
 40
0.2
 41
0.2
  0
VERTEX
  8
0
 10
125.203
 20
66.1183
 30
0.0
 40
0.2
 41
0.2
  0
VERTEX
  8
0
 10
125.203
 20
66.1003
 30
0.0
 40
0.2
 41
0.2
  0
VERTEX
  8
0
 10
125.203
 20
60.1998
 30
0.0
 40
0.2
 41
0.2
  0
VERTEX
  8
0
 10
125.203
 20
60.1899
 30
0.0
 40
0.2
 41
0.2
  0
VERTEX
  8
0
 10
125.217
 20
60.1581
 30
0.0
 40
0.2
 41
0.2
  0
VERTEX
  8
0
 10
125.24
 20
60.1624
 30
0.0
 40
0.2
 41
0.2
  0
VERTEX
  8
0
 10
125.244
 20
60.1857
 30
0.0
 40
0.2
 41
0.2
  0
VERTEX
  8
0
 10
125.213
 20
60.1998
 30
0.0
 40
0.2
 41
0.2
  0
VERTEX
  8
0
 10
125.203
 20
60.1998
 30
0.0
 40
0.2
 41
0.2
  0
VERTEX
  8
0
 10
113.403
 20
60.1998
 30
0.0
 40
0.2
 41
0.2
  0
VERTEX
  8
0
 10
113.392
 20
60.1998
 30
0.0
 40
0.2
 41
0.2
  0
VERTEX
  8
0
 10
113.36
 20
60.1857
 30
0.0
 40
0.2
 41
0.2
  0
VERTEX
  8
0
 10
113.364
 20
60.1624
 30
0.0
 40
0.2
 41
0.2
  0
VERTEX
  8
0
 10
113.388
 20
60.1581
 30
0.0
 40
0.2
 41
0.2
  0
VERTEX
  8
0
 10
113.403
 20
60.1899
 30
0.0
 40
0.2
 41
0.2
  0
VERTEX
  8
0
 10
113.403
 20
60.1998
 30
0.0
 40
0.2
 41
0.2
  0
VERTEX
  8
0
 10
113.403
 20
66.1003
 30
0.0
 40
0.2
 41
0.2
  0
VERTEX
  8
0
 10
113.403
 20
66.1183
 30
0.0
 40
0.2
 41
0.2
  0
VERTEX
  8
0
 10
113.373
 20
66.1705
 30
0.0
 40
0.2
 41
0.2
  0
VERTEX
  8
0
 10
113.319
 20
66.1995
 30
0.0
 40
0.2
 41
0.2
  0
VERTEX
  8
0
 10
113.302
 20
66.1995
 30
0.0
 40
0.2
 41
0.2
  0
VERTEX
  8
0
 10
102.402
 20
66.1995
 30
0.0
 40
0.2
 41
0.2
  0
VERTEX
  8
0
 10
102.391
 20
66.1995
 30
0.0
 40
0.2
 41
0.2
  0
VERTEX
  8
0
 10
102.359
 20
66.1857
 30
0.0
 40
0.2
 41
0.2
  0
VERTEX
  8
0
 10
102.365
 20
66.1624
 30
0.0
 40
0.2
 41
0.2
  0
VERTEX
  8
0
 10
102.387
 20
66.1582
 30
0.0
 40
0.2
 41
0.2
  0
VERTEX
  8
0
 10
102.402
 20
66.1899
 30
0.0
 40
0.2
 41
0.2
  0
VERTEX
  8
0
 10
102.402
 20
66.1995
 30
0.0
 40
0.2
 41
0.2
  0
VERTEX
  8
0
 10
102.402
 20
67.0994
 30
0.0
 40
0.2
 41
0.2
  0
VERTEX
  8
0
 10
102.402
 20
67.1174
 30
0.0
 40
0.2
 41
0.2
  0
VERTEX
  8
0
 10
102.373
 20
67.171
 30
0.0
 40
0.2
 41
0.2
  0
VERTEX
  8
0
 10
102.319
 20
67.1999
 30
0.0
 40
0.2
 41
0.2
  0
VERTEX
  8
0
 10
102.303
 20
67.1999
 30
0.0
 40
0.2
 41
0.2
  0
VERTEX
  8
0
 10
100.302
 20
67.1999
 30
0.0
 40
0.2
 41
0.2
  0
VERTEX
  8
0
 10
100.284
 20
67.1999
 30
0.0
 40
0.2
 41
0.2
  0
VERTEX
  8
0
 10
100.232
 20
67.171
 30
0.0
 40
0.2
 41
0.2
  0
VERTEX
  8
0
 10
100.203
 20
67.1174
 30
0.0
 40
0.2
 41
0.2
  0
VERTEX
  8
0
 10
100.203
 20
67.0994
 30
0.0
 40
0.2
 41
0.2
  0
VERTEX
  8
0
 10
100.203
 20
66.1003
 30
0.0
 40
0.2
 41
0.2
  0
VERTEX
  8
0
 10
100.203
 20
66.1183
 30
0.0
 40
0.2
 41
0.2
  0
VERTEX
  8
0
 10
100.232
 20
66.1705
 30
0.0
 40
0.2
 41
0.2
  0
VERTEX
  8
0
 10
100.284
 20
66.1995
 30
0.0
 40
0.2
 41
0.2
  0
VERTEX
  8
0
 10
100.302
 20
66.1995
 30
0.0
 40
0.2
 41
0.2
  0
VERTEX
  8
0
 10
100.284
 20
66.1995
 30
0.0
 40
0.2
 41
0.2
  0
VERTEX
  8
0
 10
100.232
 20
66.1705
 30
0.0
 40
0.2
 41
0.2
  0
VERTEX
  8
0
 10
100.203
 20
66.1183
 30
0.0
 40
0.2
 41
0.2
  0
VERTEX
  8
0
 10
100.203
 20
66.1003
 30
0.0
 40
0.2
 41
0.2
  0
VERTEX
  8
0
 10
100.203
 20
60.1998
 30
0.0
 40
0.2
 41
0.2
  0
VERTEX
  8
0
 10
100.203
 20
60.1899
 30
0.0
 40
0.2
 41
0.2
  0
VERTEX
  8
0
 10
100.216
 20
60.1581
 30
0.0
 40
0.2
 41
0.2
  0
VERTEX
  8
0
 10
100.24
 20
60.1624
 30
0.0
 40
0.2
 41
0.2
  0
VERTEX
  8
0
 10
100.244
 20
60.1857
 30
0.0
 40
0.2
 41
0.2
  0
VERTEX
  8
0
 10
100.212
 20
60.1998
 30
0.0
 40
0.2
 41
0.2
  0
VERTEX
  8
0
 10
100.203
 20
60.1998
 30
0.0
 40
0.2
 41
0.2
  0
VERTEX
  8
0
 10
88.4026
 20
60.1998
 30
0.0
 40
0.2
 41
0.2
  0
VERTEX
  8
0
 10
88.3916
 20
60.1998
 30
0.0
 40
0.2
 41
0.2
  0
VERTEX
  8
0
 10
88.3599
 20
60.1857
 30
0.0
 40
0.2
 41
0.2
  0
VERTEX
  8
0
 10
88.3638
 20
60.1624
 30
0.0
 40
0.2
 41
0.2
  0
VERTEX
  8
0
 10
88.3874
 20
60.1581
 30
0.0
 40
0.2
 41
0.2
  0
VERTEX
  8
0
 10
88.4026
 20
60.1899
 30
0.0
 40
0.2
 41
0.2
  0
VERTEX
  8
0
 10
88.4026
 20
60.1998
 30
0.0
 40
0.2
 41
0.2
  0
VERTEX
  8
0
 10
88.4026
 20
66.1003
 30
0.0
 40
0.2
 41
0.2
  0
VERTEX
  8
0
 10
88.4026
 20
66.1183
 30
0.0
 40
0.2
 41
0.2
  0
VERTEX
  8
0
 10
88.3722
 20
66.1705
 30
0.0
 40
0.2
 41
0.2
  0
VERTEX
  8
0
 10
88.3186
 20
66.1995
 30
0.0
 40
0.2
 41
0.2
  0
VERTEX
  8
0
 10
88.302
 20
66.1995
 30
0.0
 40
0.2
 41
0.2
  0
VERTEX
  8
0
 10
88.3186
 20
66.1995
 30
0.0
 40
0.2
 41
0.2
  0
VERTEX
  8
0
 10
88.3722
 20
66.1705
 30
0.0
 40
0.2
 41
0.2
  0
VERTEX
  8
0
 10
88.4026
 20
66.1183
 30
0.0
 40
0.2
 41
0.2
  0
VERTEX
  8
0
 10
88.4026
 20
66.1003
 30
0.0
 40
0.2
 41
0.2
  0
VERTEX
  8
0
 10
88.4026
 20
67.0994
 30
0.0
 40
0.2
 41
0.2
  0
VERTEX
  8
0
 10
88.4026
 20
67.1174
 30
0.0
 40
0.2
 41
0.2
  0
VERTEX
  8
0
 10
88.3722
 20
67.171
 30
0.0
 40
0.2
 41
0.2
  0
VERTEX
  8
0
 10
88.3186
 20
67.1999
 30
0.0
 40
0.2
 41
0.2
  0
VERTEX
  8
0
 10
88.302
 20
67.1999
 30
0.0
 40
0.2
 41
0.2
  0
VERTEX
  8
0
 10
86.3025
 20
67.1999
 30
0.0
 40
0.2
 41
0.2
  0
VERTEX
  8
0
 10
86.2845
 20
67.1999
 30
0.0
 40
0.2
 41
0.2
  0
VERTEX
  8
0
 10
86.2323
 20
67.171
 30
0.0
 40
0.2
 41
0.2
  0
VERTEX
  8
0
 10
86.203
 20
67.1174
 30
0.0
 40
0.2
 41
0.2
  0
VERTEX
  8
0
 10
86.203
 20
67.0994
 30
0.0
 40
0.2
 41
0.2
  0
VERTEX
  8
0
 10
86.203
 20
66.1995
 30
0.0
 40
0.2
 41
0.2
  0
VERTEX
  8
0
 10
86.203
 20
66.1899
 30
0.0
 40
0.2
 41
0.2
  0
VERTEX
  8
0
 10
86.2171
 20
66.1582
 30
0.0
 40
0.2
 41
0.2
  0
VERTEX
  8
0
 10
86.2404
 20
66.1624
 30
0.0
 40
0.2
 41
0.2
  0
VERTEX
  8
0
 10
86.2446
 20
66.1857
 30
0.0
 40
0.2
 41
0.2
  0
VERTEX
  8
0
 10
86.2129
 20
66.1995
 30
0.0
 40
0.2
 41
0.2
  0
VERTEX
  8
0
 10
86.203
 20
66.1995
 30
0.0
 40
0.2
 41
0.2
  0
VERTEX
  8
0
 10
77.403
 20
66.1995
 30
0.0
 40
0.2
 41
0.2
  0
VERTEX
  8
0
 10
77.392
 20
66.1995
 30
0.0
 40
0.2
 41
0.2
  0
VERTEX
  8
0
 10
77.3603
 20
66.1857
 30
0.0
 40
0.2
 41
0.2
  0
VERTEX
  8
0
 10
77.3645
 20
66.1624
 30
0.0
 40
0.2
 41
0.2
  0
VERTEX
  8
0
 10
77.3878
 20
66.1582
 30
0.0
 40
0.2
 41
0.2
  0
VERTEX
  8
0
 10
77.403
 20
66.1899
 30
0.0
 40
0.2
 41
0.2
  0
VERTEX
  8
0
 10
77.403
 20
66.1995
 30
0.0
 40
0.2
 41
0.2
  0
VERTEX
  8
0
 10
77.403
 20
67.0994
 30
0.0
 40
0.2
 41
0.2
  0
VERTEX
  8
0
 10
77.403
 20
67.1174
 30
0.0
 40
0.2
 41
0.2
  0
VERTEX
  8
0
 10
77.3726
 20
67.171
 30
0.0
 40
0.2
 41
0.2
  0
VERTEX
  8
0
 10
77.319
 20
67.1999
 30
0.0
 40
0.2
 41
0.2
  0
VERTEX
  8
0
 10
77.3024
 20
67.1999
 30
0.0
 40
0.2
 41
0.2
  0
VERTEX
  8
0
 10
75.3029
 20
67.1999
 30
0.0
 40
0.2
 41
0.2
  0
VERTEX
  8
0
 10
75.2849
 20
67.1999
 30
0.0
 40
0.2
 41
0.2
  0
VERTEX
  8
0
 10
75.2313
 20
67.171
 30
0.0
 40
0.2
 41
0.2
  0
VERTEX
  8
0
 10
75.2023
 20
67.1174
 30
0.0
 40
0.2
 41
0.2
  0
VERTEX
  8
0
 10
75.2023
 20
67.0994
 30
0.0
 40
0.2
 41
0.2
  0
VERTEX
  8
0
 10
75.2023
 20
66.1003
 30
0.0
 40
0.2
 41
0.2
  0
VERTEX
  8
0
 10
75.2023
 20
66.1183
 30
0.0
 40
0.2
 41
0.2
  0
VERTEX
  8
0
 10
75.2313
 20
66.1705
 30
0.0
 40
0.2
 41
0.2
  0
VERTEX
  8
0
 10
75.2849
 20
66.1995
 30
0.0
 40
0.2
 41
0.2
  0
VERTEX
  8
0
 10
75.3029
 20
66.1995
 30
0.0
 40
0.2
 41
0.2
  0
VERTEX
  8
0
 10
75.2849
 20
66.1995
 30
0.0
 40
0.2
 41
0.2
  0
VERTEX
  8
0
 10
75.2313
 20
66.1705
 30
0.0
 40
0.2
 41
0.2
  0
VERTEX
  8
0
 10
75.2023
 20
66.1183
 30
0.0
 40
0.2
 41
0.2
  0
VERTEX
  8
0
 10
75.2023
 20
66.1003
 30
0.0
 40
0.2
 41
0.2
  0
VERTEX
  8
0
 10
75.2023
 20
60.1998
 30
0.0
 40
0.2
 41
0.2
  0
VERTEX
  8
0
 10
75.2023
 20
60.1899
 30
0.0
 40
0.2
 41
0.2
  0
VERTEX
  8
0
 10
75.2161
 20
60.1581
 30
0.0
 40
0.2
 41
0.2
  0
VERTEX
  8
0
 10
75.2394
 20
60.1624
 30
0.0
 40
0.2
 41
0.2
  0
VERTEX
  8
0
 10
75.2436
 20
60.1857
 30
0.0
 40
0.2
 41
0.2
  0
VERTEX
  8
0
 10
75.2119
 20
60.1998
 30
0.0
 40
0.2
 41
0.2
  0
VERTEX
  8
0
 10
75.2023
 20
60.1998
 30
0.0
 40
0.2
 41
0.2
  0
VERTEX
  8
0
 10
63.4023
 20
60.1998
 30
0.0
 40
0.2
 41
0.2
  0
VERTEX
  8
0
 10
63.391
 20
60.1998
 30
0.0
 40
0.2
 41
0.2
  0
VERTEX
  8
0
 10
63.3596
 20
60.1857
 30
0.0
 40
0.2
 41
0.2
  0
VERTEX
  8
0
 10
63.3649
 20
60.1624
 30
0.0
 40
0.2
 41
0.2
  0
VERTEX
  8
0
 10
63.3871
 20
60.1581
 30
0.0
 40
0.2
 41
0.2
  0
VERTEX
  8
0
 10
63.4023
 20
60.1899
 30
0.0
 40
0.2
 41
0.2
  0
VERTEX
  8
0
 10
63.4023
 20
60.1998
 30
0.0
 40
0.2
 41
0.2
  0
VERTEX
  8
0
 10
63.4023
 20
66.1003
 30
0.0
 40
0.2
 41
0.2
  0
VERTEX
  8
0
 10
63.4023
 20
66.1183
 30
0.0
 40
0.2
 41
0.2
  0
VERTEX
  8
0
 10
63.3734
 20
66.1705
 30
0.0
 40
0.2
 41
0.2
  0
VERTEX
  8
0
 10
63.3194
 20
66.1995
 30
0.0
 40
0.2
 41
0.2
  0
VERTEX
  8
0
 10
63.3028
 20
66.1995
 30
0.0
 40
0.2
 41
0.2
  0
VERTEX
  8
0
 10
63.3194
 20
66.1995
 30
0.0
 40
0.2
 41
0.2
  0
VERTEX
  8
0
 10
63.3734
 20
66.1705
 30
0.0
 40
0.2
 41
0.2
  0
VERTEX
  8
0
 10
63.4023
 20
66.1183
 30
0.0
 40
0.2
 41
0.2
  0
VERTEX
  8
0
 10
63.4023
 20
66.1003
 30
0.0
 40
0.2
 41
0.2
  0
VERTEX
  8
0
 10
63.4023
 20
67.0994
 30
0.0
 40
0.2
 41
0.2
  0
VERTEX
  8
0
 10
63.4023
 20
67.1174
 30
0.0
 40
0.2
 41
0.2
  0
VERTEX
  8
0
 10
63.3734
 20
67.171
 30
0.0
 40
0.2
 41
0.2
  0
VERTEX
  8
0
 10
63.3194
 20
67.1999
 30
0.0
 40
0.2
 41
0.2
  0
VERTEX
  8
0
 10
63.3028
 20
67.1999
 30
0.0
 40
0.2
 41
0.2
  0
VERTEX
  8
0
 10
61.3022
 20
67.1999
 30
0.0
 40
0.2
 41
0.2
  0
VERTEX
  8
0
 10
61.2842
 20
67.1999
 30
0.0
 40
0.2
 41
0.2
  0
VERTEX
  8
0
 10
61.2316
 20
67.171
 30
0.0
 40
0.2
 41
0.2
  0
VERTEX
  8
0
 10
61.2027
 20
67.1174
 30
0.0
 40
0.2
 41
0.2
  0
VERTEX
  8
0
 10
61.2027
 20
67.0994
 30
0.0
 40
0.2
 41
0.2
  0
VERTEX
  8
0
 10
61.2027
 20
66.1995
 30
0.0
 40
0.2
 41
0.2
  0
VERTEX
  8
0
 10
61.2027
 20
66.1899
 30
0.0
 40
0.2
 41
0.2
  0
VERTEX
  8
0
 10
61.2165
 20
66.1582
 30
0.0
 40
0.2
 41
0.2
  0
VERTEX
  8
0
 10
61.2401
 20
66.1624
 30
0.0
 40
0.2
 41
0.2
  0
VERTEX
  8
0
 10
61.244
 20
66.1857
 30
0.0
 40
0.2
 41
0.2
  0
VERTEX
  8
0
 10
61.2126
 20
66.1995
 30
0.0
 40
0.2
 41
0.2
  0
VERTEX
  8
0
 10
61.2027
 20
66.1995
 30
0.0
 40
0.2
 41
0.2
  0
VERTEX
  8
0
 10
50.3026
 20
66.1995
 30
0.0
 40
0.2
 41
0.2
  0
VERTEX
  8
0
 10
50.2846
 20
66.1995
 30
0.0
 40
0.2
 41
0.2
  0
VERTEX
  8
0
 10
50.231
 20
66.1705
 30
0.0
 40
0.2
 41
0.2
  0
VERTEX
  8
0
 10
50.202
 20
66.1183
 30
0.0
 40
0.2
 41
0.2
  0
VERTEX
  8
0
 10
50.202
 20
66.1003
 30
0.0
 40
0.2
 41
0.2
  0
VERTEX
  8
0
 10
50.202
 20
60.1998
 30
0.0
 40
0.2
 41
0.2
  0
VERTEX
  8
0
 10
50.202
 20
60.1899
 30
0.0
 40
0.2
 41
0.2
  0
VERTEX
  8
0
 10
50.2158
 20
60.1581
 30
0.0
 40
0.2
 41
0.2
  0
VERTEX
  8
0
 10
50.2391
 20
60.1624
 30
0.0
 40
0.2
 41
0.2
  0
VERTEX
  8
0
 10
50.2433
 20
60.1857
 30
0.0
 40
0.2
 41
0.2
  0
VERTEX
  8
0
 10
50.2116
 20
60.1998
 30
0.0
 40
0.2
 41
0.2
  0
VERTEX
  8
0
 10
50.202
 20
60.1998
 30
0.0
 40
0.2
 41
0.2
  0
VERTEX
  8
0
 10
38.403
 20
60.1998
 30
0.0
 40
0.2
 41
0.2
  0
VERTEX
  8
0
 10
38.3921
 20
60.1998
 30
0.0
 40
0.2
 41
0.2
  0
VERTEX
  8
0
 10
38.3603
 20
60.1857
 30
0.0
 40
0.2
 41
0.2
  0
VERTEX
  8
0
 10
38.3646
 20
60.1624
 30
0.0
 40
0.2
 41
0.2
  0
VERTEX
  8
0
 10
38.3879
 20
60.1581
 30
0.0
 40
0.2
 41
0.2
  0
VERTEX
  8
0
 10
38.403
 20
60.1899
 30
0.0
 40
0.2
 41
0.2
  0
VERTEX
  8
0
 10
38.403
 20
60.1998
 30
0.0
 40
0.2
 41
0.2
  0
VERTEX
  8
0
 10
38.403
 20
66.1003
 30
0.0
 40
0.2
 41
0.2
  0
VERTEX
  8
0
 10
38.403
 20
66.1183
 30
0.0
 40
0.2
 41
0.2
  0
VERTEX
  8
0
 10
38.3727
 20
66.1705
 30
0.0
 40
0.2
 41
0.2
  0
VERTEX
  8
0
 10
38.3191
 20
66.1995
 30
0.0
 40
0.2
 41
0.2
  0
VERTEX
  8
0
 10
38.3025
 20
66.1995
 30
0.0
 40
0.2
 41
0.2
  0
VERTEX
  8
0
 10
25.3022
 20
66.1995
 30
0.0
 40
0.2
 41
0.2
  0
VERTEX
  8
0
 10
25.2843
 20
66.1995
 30
0.0
 40
0.2
 41
0.2
  0
VERTEX
  8
0
 10
25.2319
 20
66.1705
 30
0.0
 40
0.2
 41
0.2
  0
VERTEX
  8
0
 10
25.2029
 20
66.1183
 30
0.0
 40
0.2
 41
0.2
  0
VERTEX
  8
0
 10
25.2029
 20
66.1003
 30
0.0
 40
0.2
 41
0.2
  0
VERTEX
  8
0
 10
25.2029
 20
60.1998
 30
0.0
 40
0.2
 41
0.2
  0
VERTEX
  8
0
 10
25.2029
 20
60.1899
 30
0.0
 40
0.2
 41
0.2
  0
VERTEX
  8
0
 10
25.2167
 20
60.1581
 30
0.0
 40
0.2
 41
0.2
  0
VERTEX
  8
0
 10
25.2402
 20
60.1624
 30
0.0
 40
0.2
 41
0.2
  0
VERTEX
  8
0
 10
25.2443
 20
60.1857
 30
0.0
 40
0.2
 41
0.2
  0
VERTEX
  8
0
 10
25.2126
 20
60.1998
 30
0.0
 40
0.2
 41
0.2
  0
VERTEX
  8
0
 10
25.2029
 20
60.1998
 30
0.0
 40
0.2
 41
0.2
  0
VERTEX
  8
0
 10
16.0996
 20
60.1998
 30
0.0
 40
0.2
 41
0.2
  0
VERTEX
  8
0
 10
16.0817
 20
60.1998
 30
0.0
 40
0.2
 41
0.2
  0
VERTEX
  8
0
 10
16.0293
 20
60.1708
 30
0.0
 40
0.2
 41
0.2
  0
VERTEX
  8
0
 10
16.0004
 20
60.1183
 30
0.0
 40
0.2
 41
0.2
  0
VERTEX
  8
0
 10
16.0004
 20
60.1003
 30
0.0
 40
0.2
 41
0.2
  0
VERTEX
  8
0
 10
16.0004
 20
60.1183
 30
0.0
 40
0.2
 41
0.2
  0
VERTEX
  8
0
 10
16.0293
 20
60.1708
 30
0.0
 40
0.2
 41
0.2
  0
VERTEX
  8
0
 10
16.0817
 20
60.1998
 30
0.0
 40
0.2
 41
0.2
  0
VERTEX
  8
0
 10
16.0996
 20
60.1998
 30
0.0
 40
0.2
 41
0.2
  0
VERTEX
  8
0
 10
10.0996
 20
60.1998
 30
0.0
 40
0.2
 41
0.2
  0
VERTEX
  8
0
 10
10.0817
 20
60.1998
 30
0.0
 40
0.2
 41
0.2
  0
VERTEX
  8
0
 10
10.0294
 20
60.1708
 30
0.0
 40
0.2
 41
0.2
  0
VERTEX
  8
0
 10
10.0004
 20
60.1183
 30
0.0
 40
0.2
 41
0.2
  0
VERTEX
  8
0
 10
10.0004
 20
60.1003
 30
0.0
 40
0.2
 41
0.2
  0
VERTEX
  8
0
 10
10.0004
 20
53.1001
 30
0.0
 40
0.2
 41
0.2
  0
VERTEX
  8
0
 10
10.0004
 20
53.0835
 30
0.0
 40
0.2
 41
0.2
  0
VERTEX
  8
0
 10
10.0294
 20
53.0296
 30
0.0
 40
0.2
 41
0.2
  0
VERTEX
  8
0
 10
10.0817
 20
52.9992
 30
0.0
 40
0.2
 41
0.2
  0
VERTEX
  8
0
 10
10.0996
 20
52.9992
 30
0.0
 40
0.2
 41
0.2
  0
VERTEX
  8
0
 10
15.1956
 20
52.9992
 30
0.0
 40
0.2
 41
0.2
  0
VERTEX
  8
0
 10
15.2053
 20
52.9992
 30
0.0
 40
0.2
 41
0.2
  0
VERTEX
  8
0
 10
15.237
 20
53.0144
 30
0.0
 40
0.2
 41
0.2
  0
VERTEX
  8
0
 10
15.2328
 20
53.038
 30
0.0
 40
0.2
 41
0.2
  0
VERTEX
  8
0
 10
15.2094
 20
53.0419
 30
0.0
 40
0.2
 41
0.2
  0
VERTEX
  8
0
 10
15.1956
 20
53.0105
 30
0.0
 40
0.2
 41
0.2
  0
VERTEX
  8
0
 10
15.1956
 20
52.9992
 30
0.0
 40
0.2
 41
0.2
  0
VERTEX
  8
0
 10
15.1956
 20
41.1992
 30
0.0
 40
0.2
 41
0.2
  0
VERTEX
  8
0
 10
15.1956
 20
41.1896
 30
0.0
 40
0.2
 41
0.2
  0
VERTEX
  8
0
 10
15.2094
 20
41.1579
 30
0.0
 40
0.2
 41
0.2
  0
VERTEX
  8
0
 10
15.2328
 20
41.1621
 30
0.0
 40
0.2
 41
0.2
  0
VERTEX
  8
0
 10
15.237
 20
41.1854
 30
0.0
 40
0.2
 41
0.2
  0
VERTEX
  8
0
 10
15.2053
 20
41.1992
 30
0.0
 40
0.2
 41
0.2
  0
VERTEX
  8
0
 10
15.1956
 20
41.1992
 30
0.0
 40
0.2
 41
0.2
  0
VERTEX
  8
0
 10
10.0996
 20
41.1992
 30
0.0
 40
0.2
 41
0.2
  0
VERTEX
  8
0
 10
10.0817
 20
41.1992
 30
0.0
 40
0.2
 41
0.2
  0
VERTEX
  8
0
 10
10.0294
 20
41.1702
 30
0.0
 40
0.2
 41
0.2
  0
VERTEX
  8
0
 10
10.0004
 20
41.118
 30
0.0
 40
0.2
 41
0.2
  0
VERTEX
  8
0
 10
10.0004
 20
41.1
 30
0.0
 40
0.2
 41
0.2
  0
VERTEX
  8
0
 10
10.0004
 20
29.1
 30
0.0
 40
0.2
 41
0.2
  0
VERTEX
  8
0
 10
10.0004
 20
29.0835
 30
0.0
 40
0.2
 41
0.2
  0
VERTEX
  8
0
 10
10.0294
 20
29.0298
 30
0.0
 40
0.2
 41
0.2
  0
VERTEX
  8
0
 10
10.0817
 20
28.9994
 30
0.0
 40
0.2
 41
0.2
  0
VERTEX
  8
0
 10
10.0996
 20
28.9994
 30
0.0
 40
0.2
 41
0.2
  0
VERTEX
  8
0
 10
15.1956
 20
28.9994
 30
0.0
 40
0.2
 41
0.2
  0
VERTEX
  8
0
 10
15.2053
 20
28.9994
 30
0.0
 40
0.2
 41
0.2
  0
VERTEX
  8
0
 10
15.237
 20
29.0146
 30
0.0
 40
0.2
 41
0.2
  0
VERTEX
  8
0
 10
15.2328
 20
29.038
 30
0.0
 40
0.2
 41
0.2
  0
VERTEX
  8
0
 10
15.2094
 20
29.0421
 30
0.0
 40
0.2
 41
0.2
  0
VERTEX
  8
0
 10
15.1956
 20
29.0105
 30
0.0
 40
0.2
 41
0.2
  0
VERTEX
  8
0
 10
15.1956
 20
28.9994
 30
0.0
 40
0.2
 41
0.2
  0
VERTEX
  8
0
 10
15.1956
 20
17.2007
 30
0.0
 40
0.2
 41
0.2
  0
VERTEX
  8
0
 10
15.1956
 20
17.191
 30
0.0
 40
0.2
 41
0.2
  0
VERTEX
  8
0
 10
15.2094
 20
17.1593
 30
0.0
 40
0.2
 41
0.2
  0
VERTEX
  8
0
 10
15.2328
 20
17.1635
 30
0.0
 40
0.2
 41
0.2
  0
VERTEX
  8
0
 10
15.237
 20
17.1869
 30
0.0
 40
0.2
 41
0.2
  0
VERTEX
  8
0
 10
15.2053
 20
17.2007
 30
0.0
 40
0.2
 41
0.2
  0
VERTEX
  8
0
 10
15.1956
 20
17.2007
 30
0.0
 40
0.2
 41
0.2
  0
VERTEX
  8
0
 10
10.0996
 20
17.2007
 30
0.0
 40
0.2
 41
0.2
  0
VERTEX
  8
0
 10
10.0817
 20
17.2007
 30
0.0
 40
0.2
 41
0.2
  0
VERTEX
  8
0
 10
10.0294
 20
17.1717
 30
0.0
 40
0.2
 41
0.2
  0
VERTEX
  8
0
 10
10.0004
 20
17.118
 30
0.0
 40
0.2
 41
0.2
  0
VERTEX
  8
0
 10
10.0004
 20
17.1001
 30
0.0
 40
0.2
 41
0.2
  0
VERTEX
  8
0
 10
10.0004
 20
10.0996
 30
0.0
 40
0.2
 41
0.2
  0
VERTEX
  8
0
 10
10.0004
 20
10.0831
 30
0.0
 40
0.2
 41
0.2
  0
VERTEX
  8
0
 10
10.0294
 20
10.0294
 30
0.0
 40
0.2
 41
0.2
  0
VERTEX
  8
0
 10
10.0817
 20
10.0004
 30
0.0
 40
0.2
 41
0.2
  0
VERTEX
  8
0
 10
10.0996
 20
10.0004
 30
0.0
 40
0.2
 41
0.2
  0
VERTEX
  8
0
 10
16.0996
 20
10.0004
 30
0.0
 40
0.2
 41
0.2
  0
VERTEX
  8
0
 10
16.0817
 20
10.0004
 30
0.0
 40
0.2
 41
0.2
  0
VERTEX
  8
0
 10
16.0293
 20
10.0294
 30
0.0
 40
0.2
 41
0.2
  0
VERTEX
  8
0
 10
16.0004
 20
10.0831
 30
0.0
 40
0.2
 41
0.2
  0
VERTEX
  8
0
 10
16.0004
 20
10.0996
 30
0.0
 40
0.2
 41
0.2
  0
VERTEX
  8
0
 10
16.0004
 20
10.0831
 30
0.0
 40
0.2
 41
0.2
  0
VERTEX
  8
0
 10
16.0293
 20
10.0294
 30
0.0
 40
0.2
 41
0.2
  0
VERTEX
  8
0
 10
16.0817
 20
10.0004
 30
0.0
 40
0.2
 41
0.2
  0
VERTEX
  8
0
 10
16.0996
 20
10.0004
 30
0.0
 40
0.2
 41
0.2
  0
SEQEND
 8
0
  0
ENDSEC
  0
EOF
